<?xml version="1.0" standalone="no"?>
<!DOCTYPE svg PUBLIC "-//W3C//DTD SVG 20010904//EN"
 "http://www.w3.org/TR/2001/REC-SVG-20010904/DTD/svg10.dtd">
<svg version="1.0" xmlns="http://www.w3.org/2000/svg"
 width="144.000000pt" height="57.000000pt" viewBox="10 0 144.000000 57.000000" class="namefill"
 preserveAspectRatio="xMidYMid meet">
<metadata>
Created by potrace 1.10, written by Peter Selinger 2001-2011
</metadata>
<g transform="translate(0.000000,57.000000) scale(0.100000,-0.100000)"
fill="rgb(31, 31, 31)" stroke="none">
<path d="M862 308 c13 -10 28 -18 33 -17 6 0 2 4 -8 10 -9 6 -15 13 -13 17 3
4 -4 8 -15 8 -19 0 -18 -1 3 -18z"/>
<path d="M456 311 c-4 -5 3 -7 14 -4 23 6 26 13 6 13 -8 0 -17 -4 -20 -9z"/>
<path d="M715 301 c-3 -5 -2 -12 3 -15 5 -3 9 1 9 9 0 17 -3 19 -12 6z"/>
<path d="M1079 273 c-13 -16 -12 -17 4 -4 16 13 21 21 13 21 -2 0 -10 -8 -17
-17z"/>
<path d="M220 265 c0 -9 10 -15 26 -15 25 0 26 -2 22 -55 -3 -47 0 -55 15 -55
14 0 17 9 17 55 0 51 2 55 23 55 14 0 24 6 24 15 0 12 -14 15 -64 15 -49 0
-63 -3 -63 -15z"/>
<path d="M400 210 c0 -65 2 -70 21 -70 18 0 20 4 15 25 -6 23 -4 25 29 25 33
0 35 -2 29 -25 -5 -21 -3 -25 15 -25 19 0 21 5 21 70 0 64 -2 70 -21 70 -16 0
-20 -5 -17 -27 3 -25 0 -28 -27 -28 -27 0 -30 3 -27 28 2 21 -1 27 -18 27 -18
0 -20 -6 -20 -70z"/>
<path d="M591 210 l1 -70 54 0 c40 0 54 4 54 14 0 10 -13 16 -37 18 -21 2 -37
8 -37 13 1 6 16 9 33 7 25 -3 31 0 31 16 0 15 -6 20 -27 18 -43 -2 -43 19 0
22 24 2 37 8 37 18 0 10 -14 14 -55 14 l-54 0 0 -70z"/>
<path d="M760 211 c0 -66 1 -69 26 -74 18 -3 22 -1 15 6 -15 15 -14 37 2 37 7
0 18 -9 25 -20 7 -11 22 -20 34 -20 21 0 21 0 2 21 -17 19 -18 21 -1 30 21 12
22 52 1 73 -9 10 -33 16 -60 16 l-44 0 0 -69z m85 19 c0 -9 -11 -16 -27 -18
-23 -3 -28 1 -28 18 0 17 5 21 28 18 16 -2 27 -9 27 -18z"/>
<path d="M940 210 l0 -70 55 0 c42 0 55 3 55 15 0 11 -11 15 -40 15 -22 0 -40
5 -40 10 0 6 14 10 30 10 23 0 30 4 30 20 0 16 -5 19 -30 14 -23 -5 -30 -3
-30 10 0 12 10 16 40 16 29 0 40 4 40 15 0 12 -13 15 -55 15 l-55 0 0 -70z"/>
<path d="M1110 259 c-16 -29 -7 -45 34 -60 48 -17 46 -32 -4 -24 -43 7 -55 -6
-21 -25 29 -15 67 -12 85 6 22 22 5 51 -42 72 -32 14 -34 17 -15 20 12 2 31
-2 42 -8 16 -8 21 -8 21 3 0 40 -81 53 -100 16z"/>
<path d="M1270 210 l0 -70 55 0 c42 0 55 3 55 15 0 11 -11 15 -40 15 -22 0
-40 5 -40 10 0 6 13 10 28 10 33 0 43 7 36 24 -3 8 -17 11 -34 8 -23 -3 -30 0
-30 12 0 12 10 16 40 16 29 0 40 4 40 15 0 12 -13 15 -55 15 l-55 0 0 -70z"/>
<path d="M1431 154 c0 -11 3 -14 6 -6 3 7 2 16 -1 19 -3 4 -6 -2 -5 -13z"/>
<path d="M458 108 c5 -5 16 -8 23 -6 8 3 3 7 -10 11 -17 4 -21 3 -13 -5z"/>
</g>
</svg>
