<?xml version="1.0" standalone="no"?>
<!DOCTYPE svg PUBLIC "-//W3C//DTD SVG 20010904//EN"
 "http://www.w3.org/TR/2001/REC-SVG-20010904/DTD/svg10.dtd">
<svg version="1.0" xmlns="http://www.w3.org/2000/svg"
 width="100.000000pt" height="19.000000pt" viewBox="0 0 100.000000 25.000000" class="namefill"
 preserveAspectRatio="xMidYMid meet">
<metadata>
Created by potrace 1.10, written by Peter Selinger 2001-2011
</metadata>
<g transform="translate(0.000000,25.000000) scale(0.100000,-0.100000)"
fill="rgb(230, 33, 132)" stroke="none">
<path d="M104 234 c-18 -14 -18 -14 6 -3 31 14 36 19 24 19 -6 0 -19 -7 -30
-16z"/>
<path d="M180 241 c0 -10 19 -25 25 -20 1 2 -3 10 -11 17 -8 7 -14 8 -14 3z"/>
<path d="M50 140 c0 -65 2 -70 21 -70 18 0 20 4 15 25 -9 34 16 34 34 0 9 -16
22 -25 37 -25 24 0 24 0 -8 40 l-33 40 29 30 c25 26 26 30 10 30 -10 0 -32
-12 -48 -27 l-28 -28 5 28 c4 22 1 27 -15 27 -17 0 -19 -7 -19 -70z"/>
<path d="M230 140 c0 -65 2 -70 21 -70 16 0 20 5 16 20 -3 12 0 20 7 20 6 0
17 -9 24 -20 7 -12 23 -20 39 -20 l26 0 -23 20 c-20 18 -21 21 -6 35 22 22 20
62 -3 75 -11 5 -38 10 -60 10 l-41 0 0 -70z m85 20 c0 -9 -11 -16 -27 -18 -23
-3 -28 1 -28 18 0 17 5 21 28 18 16 -2 27 -9 27 -18z"/>
<path d="M410 140 c0 -63 2 -70 20 -70 18 0 20 7 20 70 0 63 -2 70 -20 70 -18
0 -20 -7 -20 -70z"/>
<path d="M523 203 c-7 -2 -13 -18 -13 -33 0 -24 6 -31 35 -41 47 -18 44 -32
-5 -24 -44 7 -48 4 -24 -19 20 -20 78 -21 94 -1 20 24 -2 62 -39 70 -47 10
-38 28 9 20 44 -7 48 -4 24 19 -15 15 -55 20 -81 9z"/>
<path d="M670 195 c0 -9 9 -15 23 -15 21 0 22 -4 19 -55 -4 -51 -2 -55 18 -55
22 0 22 3 17 56 -6 55 -5 56 19 51 18 -3 24 0 24 14 0 16 -8 19 -60 19 -47 0
-60 -3 -60 -15z"/>
<path d="M850 153 c-13 -32 -28 -64 -33 -70 -7 -10 -3 -13 17 -13 16 0 25 4
21 10 -4 6 8 10 29 10 20 0 36 -4 36 -10 0 -5 9 -10 21 -10 11 0 19 3 17 8 -1
4 -14 35 -28 70 -32 80 -50 81 -80 5z m53 -13 c4 -15 0 -20 -14 -20 -21 0 -22
1 -13 24 8 22 21 20 27 -4z"/>
<path d="M145 20 c-3 -6 1 -7 9 -4 18 7 21 14 7 14 -6 0 -13 -4 -16 -10z"/>
<path d="M225 20 c-3 -6 1 -7 9 -4 18 7 21 14 7 14 -6 0 -13 -4 -16 -10z"/>
</g>
</svg>
