<?xml version="1.0" standalone="no"?>
<!DOCTYPE svg PUBLIC "-//W3C//DTD SVG 20010904//EN"
 "http://www.w3.org/TR/2001/REC-SVG-20010904/DTD/svg10.dtd">
<svg version="1.0" xmlns="http://www.w3.org/2000/svg"
 width="723.000000pt" height="900.000000pt" viewBox="0 0 723.000000 900.000000"
 preserveAspectRatio="xMidYMid meet">
<metadata>
Created by potrace 1.10, written by Peter Selinger 2001-2011
</metadata>
<g transform="translate(0.000000,900.000000) scale(0.100000,-0.100000)"
fill="hotpink" stroke="none">
<path d="M200 8980 c0 -23 4 -24 31 -9 23 12 16 29 -12 29 -12 0 -19 -7 -19
-20z"/>
<path d="M505 8944 c-33 -35 -51 -48 -53 -39 -5 24 -42 19 -42 -5 0 -35 -40
-80 -71 -80 -15 0 -34 -8 -41 -18 -7 -10 -31 -29 -53 -42 -22 -13 -52 -36 -66
-50 -57 -53 -88 -80 -96 -80 -4 0 -25 -15 -46 -34 -37 -32 -38 -36 -35 -89 l3
-56 35 31 c40 35 172 139 233 183 54 39 251 188 345 260 40 31 70 61 67 66 -4
5 -34 9 -68 8 -62 -1 -62 -1 -112 -55z"/>
<path d="M1660 8985 c0 -9 11 -21 25 -27 14 -6 25 -14 25 -18 0 -3 21 -17 48
-30 26 -12 61 -36 78 -52 23 -22 38 -28 53 -23 12 3 21 12 21 18 0 12 -99 77
-117 77 -13 0 -53 44 -53 58 0 7 -16 12 -40 12 -29 0 -40 -4 -40 -15z"/>
<path d="M2090 8980 c0 -12 -7 -20 -17 -20 -10 -1 -29 -10 -42 -21 -23 -19
-23 -20 -5 -40 18 -19 19 -20 32 -2 7 10 27 25 45 33 18 8 31 19 30 23 -2 4
-3 16 -3 27 0 13 -7 20 -20 20 -13 0 -20 -7 -20 -20z"/>
<path d="M2160 8986 c0 -13 20 -26 41 -26 5 0 9 9 9 20 0 15 -7 20 -25 20 -15
0 -25 -6 -25 -14z"/>
<path d="M3240 8986 c0 -14 34 -28 44 -18 15 14 4 32 -19 32 -15 0 -25 -6 -25
-14z"/>
<path d="M5860 8985 c0 -8 5 -15 10 -15 6 0 10 7 10 15 0 8 -4 15 -10 15 -5 0
-10 -7 -10 -15z"/>
<path d="M5970 8949 c-16 -65 -3 -83 35 -45 39 39 55 34 55 -18 0 -39 -4 -47
-30 -63 -16 -9 -30 -25 -30 -34 0 -20 31 -49 53 -49 17 0 18 -4 21 -75 1 -35
4 -40 27 -43 23 -3 28 2 37 39 10 40 9 47 -23 104 l-34 61 29 26 c32 28 32 61
-2 79 -15 8 -18 17 -13 40 6 28 5 29 -28 29 -25 0 -37 -5 -40 -17 -4 -17 -5
-17 -6 0 -1 10 -9 17 -20 17 -15 0 -22 -12 -31 -51z"/>
<path d="M147 8948 c-4 -12 -4 -24 -1 -27 8 -9 37 27 30 38 -11 17 -23 13 -29
-11z"/>
<path d="M2380 8925 c0 -14 21 -45 30 -45 18 0 10 29 -10 40 -11 6 -20 8 -20
5z"/>
<path d="M2270 8910 c0 -5 -13 -24 -28 -42 -16 -18 -32 -45 -35 -59 -5 -17
-16 -29 -32 -33 -32 -8 -34 -42 -3 -52 16 -5 26 -1 36 15 10 14 25 21 48 21
32 0 33 1 27 37 -4 26 -3 34 5 29 7 -4 12 -13 12 -19 1 -19 39 -59 50 -52 16
10 12 61 -6 76 -8 7 -24 30 -35 51 -18 35 -39 51 -39 28z"/>
<path d="M2467 8903 c-19 -19 -4 -39 37 -52 49 -14 66 -9 66 18 0 28 -82 56
-103 34z"/>
<path d="M6317 8897 c-7 -19 4 -34 36 -46 21 -8 27 -17 27 -42 0 -18 -7 -37
-16 -43 -9 -7 -12 -18 -8 -29 9 -23 24 -22 24 3 0 15 9 21 40 26 75 12 97 76
28 82 -26 2 -39 9 -43 22 -3 10 -20 23 -37 29 -40 14 -45 14 -51 -2z"/>
<path d="M1188 8860 c-29 -25 -52 -38 -62 -34 -13 5 -16 -1 -16 -27 0 -44 -14
-64 -42 -64 -16 0 -24 -7 -26 -22 -2 -13 -17 -32 -33 -44 -20 -14 -29 -28 -27
-43 6 -45 81 -7 115 59 9 16 22 35 29 43 8 7 14 22 14 32 0 12 10 21 31 25 17
4 33 14 36 23 4 10 15 28 25 41 18 24 24 51 11 51 -5 0 -29 -18 -55 -40z"/>
<path d="M50 8875 c-14 -16 -5 -36 13 -29 7 2 18 13 25 24 10 17 10 20 -7 20
-10 0 -24 -7 -31 -15z"/>
<path d="M6224 8865 c-19 -15 -19 -15 1 -30 24 -19 41 -14 37 11 -6 30 -16 35
-38 19z"/>
<path d="M2140 8830 c-8 -6 -32 -15 -52 -20 -39 -11 -52 -30 -20 -30 10 0 23
-5 29 -11 8 -8 22 -3 52 22 23 18 41 36 41 41 0 11 -32 10 -50 -2z"/>
<path d="M1815 8781 c-10 -33 11 -68 49 -81 20 -6 36 -15 36 -18 -1 -14 -37
-50 -57 -56 -12 -4 -31 -23 -42 -42 -11 -19 -29 -37 -38 -41 -10 -4 -36 -25
-58 -47 -22 -23 -57 -57 -78 -76 -20 -19 -45 -43 -55 -52 -22 -22 -170 -146
-213 -178 -18 -14 -46 -40 -63 -57 -16 -18 -38 -33 -48 -33 -10 0 -18 -4 -18
-10 0 -5 -6 -10 -14 -10 -9 0 -12 -7 -9 -21 5 -18 3 -20 -16 -14 -17 5 -23 1
-32 -22 -14 -36 -46 -66 -65 -59 -9 4 -18 -3 -24 -19 -5 -14 -18 -25 -28 -25
-23 0 -64 -38 -59 -53 2 -7 26 -15 53 -19 47 -7 50 -6 84 30 38 40 125 118
285 256 55 48 118 104 140 125 23 21 51 41 62 45 12 4 25 15 28 25 3 11 28 40
56 66 47 44 51 46 72 32 26 -18 25 -48 -3 -84 -25 -32 -25 -43 -1 -43 11 0 22
-4 26 -9 10 -17 -13 -22 -41 -9 -24 11 -28 10 -42 -10 -8 -12 -22 -22 -32 -22
-27 0 -32 -26 -12 -70 11 -27 22 -38 31 -35 20 8 99 -33 106 -55 3 -11 1 -28
-4 -39 -14 -26 5 -84 19 -61 6 8 10 24 10 34 0 25 48 76 71 76 33 0 49 -12 49
-37 0 -18 -8 -28 -30 -36 -36 -14 -39 -50 -5 -55 38 -5 92 97 61 115 -8 4 -21
25 -29 46 -14 32 -20 37 -50 37 -19 0 -46 -9 -60 -20 -25 -20 -26 -20 -31 -2
-4 11 -18 24 -31 30 -29 13 -30 21 -12 46 10 14 26 18 58 18 61 -2 81 12 39
26 -27 10 -30 15 -24 34 9 29 36 67 48 68 5 0 18 -8 28 -17 18 -16 20 -16 40
5 16 15 19 24 11 34 -6 7 -14 28 -18 46 -7 36 -19 39 -61 17 -16 -8 -38 -15
-49 -15 -21 0 -53 16 -45 22 25 19 62 38 75 38 8 0 23 8 33 18 10 10 27 22 38
27 15 7 11 10 -23 15 -47 7 -58 14 -48 29 4 8 12 8 25 1 13 -7 21 -5 31 6 12
14 15 14 30 -5 9 -11 19 -17 23 -14 11 11 6 31 -10 48 -12 12 -14 19 -6 27 17
17 62 -17 62 -47 0 -20 5 -25 24 -25 14 0 28 5 31 10 3 6 26 10 50 10 47 0 59
8 49 34 -7 18 -39 22 -49 6 -11 -18 -23 -11 -34 20 -9 27 -14 30 -54 30 -27 0
-49 6 -57 15 -7 8 -22 12 -38 9 -23 -4 -32 3 -60 41 -36 49 -48 55 -57 26z"/>
<path d="M1696 8751 c-3 -4 -19 -11 -35 -14 -17 -4 -40 -21 -56 -42 -15 -19
-34 -35 -42 -35 -8 0 -23 -11 -34 -24 -10 -13 -32 -29 -49 -36 -18 -7 -30 -20
-30 -31 0 -10 -8 -20 -18 -23 -10 -4 -33 -21 -51 -40 -29 -29 -38 -34 -67 -29
-29 5 -35 2 -43 -19 -5 -13 -16 -30 -25 -37 -9 -7 -16 -23 -16 -35 0 -12 -7
-31 -15 -42 -14 -19 -15 -19 -34 5 -24 31 -44 19 -36 -20 6 -25 3 -29 -14 -29
-27 0 -35 -17 -14 -29 17 -9 17 -10 1 -16 -9 -4 -21 -4 -26 -1 -5 3 -16 -10
-25 -29 -9 -19 -20 -35 -25 -35 -4 0 -33 -22 -63 -50 -29 -27 -59 -50 -64 -50
-18 0 -47 -41 -41 -57 4 -9 -1 -17 -14 -20 -11 -3 -20 -11 -20 -18 0 -6 -9
-20 -20 -30 -20 -18 -20 -17 -20 13 0 18 -3 32 -7 32 -5 0 -27 -21 -49 -47
-39 -44 -44 -47 -66 -34 -28 15 -178 2 -285 -25 -34 -9 -67 -13 -73 -9 -25 15
-8 57 47 118 31 34 60 64 64 67 4 3 11 18 14 33 8 31 20 35 34 10 8 -15 10
-14 17 10 4 20 2 33 -9 44 -15 15 -20 14 -57 -10 -22 -15 -40 -35 -40 -45 0
-9 -10 -22 -22 -27 -12 -6 -25 -21 -28 -35 -4 -15 -14 -26 -27 -28 -11 -2 -33
-16 -48 -33 -19 -19 -39 -29 -57 -29 -21 0 -31 -6 -38 -25 -9 -25 -45 -47 -91
-58 -14 -4 -31 -18 -37 -32 -6 -14 -18 -25 -27 -25 -10 0 -15 -10 -15 -34 l0
-34 47 13 c86 24 190 45 228 45 20 0 63 7 94 15 35 9 122 15 238 17 100 2 186
8 190 12 31 31 453 436 513 492 41 38 125 112 185 163 61 52 112 97 115 100 3
3 27 24 54 46 74 59 96 81 89 88 -9 10 -51 8 -57 -2z"/>
<path d="M2505 8741 c-14 -24 87 -48 105 -26 7 8 19 15 26 15 8 0 14 5 14 10
0 7 -7 7 -21 0 -15 -8 -29 -8 -51 -1 -38 14 -65 14 -73 2z"/>
<path d="M2364 8709 c-7 -12 29 -91 54 -117 6 -7 12 -18 12 -23 0 -13 23 -11
45 5 19 14 19 15 -8 27 -15 7 -27 20 -27 29 0 24 -67 94 -76 79z"/>
<path d="M2292 8698 c-19 -19 -14 -37 8 -31 11 3 20 14 20 24 0 22 -11 24 -28
7z"/>
<path d="M6208 8693 c-34 -5 -34 -8 -3 -45 14 -16 25 -40 25 -54 0 -21 -5 -24
-34 -24 -46 0 -54 -16 -17 -35 43 -22 58 -19 70 15 13 39 29 38 33 -2 2 -26 8
-34 27 -36 15 -3 27 -14 34 -33 6 -16 17 -29 24 -29 7 0 13 -9 13 -20 0 -11
-6 -20 -14 -20 -7 0 -16 9 -19 20 -4 14 -14 20 -34 20 -16 0 -34 5 -40 11 -6
6 -16 8 -22 5 -34 -22 16 -92 72 -101 25 -5 53 -20 76 -41 l36 -34 -37 -31
c-21 -17 -38 -36 -38 -43 0 -6 -14 -17 -31 -25 -29 -12 -32 -12 -59 14 -32 31
-64 30 -68 -1 -4 -28 16 -47 67 -64 38 -12 46 -12 74 2 18 9 41 19 53 22 11 4
28 22 37 42 18 37 42 41 42 7 0 -11 5 -26 11 -34 6 -8 14 -57 18 -109 3 -52
11 -99 16 -104 13 -13 13 -132 -1 -157 -14 -26 -2 -61 19 -57 12 3 16 13 14
36 -2 29 0 32 28 32 25 0 30 4 30 23 0 13 -4 27 -9 32 -5 6 -11 37 -14 70 -6
83 -33 215 -46 228 -6 6 -11 24 -11 39 0 16 -7 31 -15 34 -10 4 -15 19 -15 43
0 20 -5 42 -11 48 -13 13 -33 46 -53 89 -8 17 -30 51 -48 75 -18 24 -42 57
-52 73 -10 17 -31 41 -47 55 -15 14 -29 35 -31 45 -3 22 -11 25 -50 19z"/>
<path d="M2450 8675 c-10 -12 -10 -15 3 -15 19 0 31 16 18 24 -5 3 -14 -1 -21
-9z"/>
<path d="M1370 8660 c-13 -9 -13 -11 0 -20 19 -12 35 -8 35 10 0 18 -16 22
-35 10z"/>
<path d="M897 8643 c-11 -11 -8 -38 9 -71 17 -36 18 -36 45 -22 26 14 24 40
-6 73 -26 28 -37 32 -48 20z"/>
<path d="M2810 8635 c-10 -12 -10 -21 -2 -40 14 -31 25 -32 42 -1 23 44 -10
77 -40 41z"/>
<path d="M6017 8610 c-6 -23 13 -42 32 -31 16 10 5 51 -14 51 -7 0 -15 -9 -18
-20z"/>
<path d="M2196 8592 c-7 -11 16 -72 27 -72 13 0 4 73 -10 77 -6 2 -14 0 -17
-5z"/>
<path d="M2968 8593 c-86 -6 -70 -18 27 -20 47 -1 85 2 85 6 0 10 -27 22 -43
19 -7 -1 -38 -3 -69 -5z"/>
<path d="M830 8568 c-44 -10 -45 -11 -22 -25 12 -9 22 -23 22 -32 -1 -21 -116
-111 -152 -118 -17 -3 -28 -12 -28 -22 0 -9 -9 -31 -20 -49 -19 -31 -24 -33
-68 -31 -47 3 -47 3 -50 -31 -4 -36 16 -60 48 -60 15 0 90 90 90 109 0 5 15
14 33 21 53 19 61 26 75 53 9 18 21 27 36 27 31 0 58 32 66 78 5 31 9 37 29
34 15 -1 21 2 17 10 -3 7 -9 21 -12 31 -4 9 -9 17 -13 16 -3 -1 -26 -6 -51
-11z"/>
<path d="M2690 8560 c0 -5 6 -10 14 -10 8 0 18 5 21 10 3 6 -3 10 -14 10 -12
0 -21 -4 -21 -10z"/>
<path d="M3373 8557 c-27 -12 -30 -32 -7 -41 26 -10 42 -7 48 11 10 25 -14 43
-41 30z"/>
<path d="M2783 8535 c-12 -21 -4 -67 11 -62 6 2 12 16 14 31 4 35 -12 55 -25
31z"/>
<path d="M2637 8523 c-11 -10 -8 -43 3 -43 6 0 10 4 10 9 0 5 3 16 6 25 6 16
-7 22 -19 9z"/>
<path d="M3180 8521 c0 -5 11 -18 24 -29 14 -10 28 -31 31 -45 16 -62 65 -55
65 10 0 19 5 43 10 54 12 22 2 26 -14 5 -6 -8 -23 -18 -38 -21 -21 -5 -27 -3
-33 14 -6 20 -45 30 -45 12z"/>
<path d="M2126 8513 c-13 -14 -5 -51 12 -55 17 -5 82 36 72 45 -9 8 -78 15
-84 10z"/>
<path d="M2532 8464 c2 -31 7 -39 23 -39 29 0 27 43 -3 63 -23 15 -23 15 -20
-24z"/>
<path d="M2900 8490 c0 -7 14 -8 38 -4 51 9 53 14 4 14 -23 0 -42 -5 -42 -10z"/>
<path d="M2011 8457 c-14 -14 -15 -74 -1 -82 6 -3 13 2 16 12 3 10 10 26 15
35 5 10 9 22 9 27 0 15 -27 20 -39 8z"/>
<path d="M2360 8451 c0 -22 16 -36 24 -22 8 12 -3 41 -15 41 -5 0 -9 -9 -9
-19z"/>
<path d="M2690 8445 c0 -14 4 -25 8 -25 5 0 14 -11 20 -25 11 -25 13 -25 42
-10 25 13 51 59 39 69 -2 2 -28 6 -56 10 -52 7 -53 6 -53 -19z"/>
<path d="M3530 8458 c0 -7 5 -20 10 -28 8 -12 10 -9 10 13 0 15 -4 27 -10 27
-5 0 -10 -6 -10 -12z"/>
<path d="M2126 8375 c-15 -8 -38 -15 -49 -15 -16 0 -18 -3 -9 -12 16 -16 92 7
92 27 0 18 1 18 -34 0z"/>
<path d="M2272 8345 c13 -40 25 -38 26 5 0 23 -4 30 -18 30 -16 0 -17 -4 -8
-35z"/>
<path d="M1980 8347 c0 -14 19 -37 31 -37 4 0 2 11 -4 25 -13 27 -27 33 -27
12z"/>
<path d="M2820 8345 c0 -9 5 -15 11 -13 6 2 11 8 11 13 0 5 -5 11 -11 13 -6 2
-11 -4 -11 -13z"/>
<path d="M3132 8340 c-16 -26 -8 -40 24 -40 27 0 30 16 10 43 -17 22 -18 21
-34 -3z"/>
<path d="M3590 8350 c0 -5 7 -10 15 -10 8 0 15 5 15 10 0 6 -7 10 -15 10 -8 0
-15 -4 -15 -10z"/>
<path d="M2731 8299 c-22 -29 -22 -29 -1 -29 11 0 23 -7 26 -15 8 -20 37 -27
68 -16 37 15 32 29 -11 33 -32 3 -38 6 -36 25 4 33 -22 35 -46 2z"/>
<path d="M3395 8320 c-9 -15 43 -36 56 -23 6 6 8 16 5 22 -9 14 -53 14 -61 1z"/>
<path d="M2477 8282 c-21 -23 -21 -32 -3 -32 20 0 41 29 29 41 -6 6 -15 3 -26
-9z"/>
<path d="M6780 8285 c0 -8 6 -15 14 -15 7 0 19 -7 26 -15 9 -11 32 -15 79 -15
36 0 84 -7 106 -15 22 -8 64 -14 93 -15 51 0 68 -12 36 -24 -9 -3 -49 -6 -90
-6 -41 0 -74 -4 -74 -9 0 -9 36 -14 193 -25 l67 -5 0 52 c0 53 0 53 -38 63
-20 5 -48 7 -62 4 -14 -4 -45 -1 -70 7 -105 32 -140 34 -167 13 -32 -25 -49
-25 -70 0 -21 24 -43 26 -43 5z"/>
<path d="M2955 8269 c-17 -18 -17 -21 -3 -35 20 -20 38 -10 38 21 0 33 -14 38
-35 14z"/>
<path d="M6125 8280 c-9 -15 4 -30 27 -30 14 0 18 5 14 16 -3 9 -6 18 -6 20 0
8 -29 4 -35 -6z"/>
<path d="M3632 8268 c-13 -13 -16 -86 -4 -104 4 -7 31 -12 60 -12 52 0 53 1
47 26 -3 14 -1 38 6 54 16 39 -1 59 -32 39 -15 -9 -24 -10 -32 -2 -14 14 -30
14 -45 -1z m76 -56 c3 -27 0 -32 -17 -32 -11 0 -26 10 -32 22 -10 18 -8 24 7
35 26 19 39 11 42 -25z"/>
<path d="M1935 8261 c-3 -6 4 -15 15 -21 11 -6 20 -17 20 -25 0 -22 21 -18 27
4 3 11 12 22 20 25 8 3 12 10 8 16 -4 6 -14 5 -27 -3 -16 -9 -22 -9 -25 1 -5
14 -29 16 -38 3z"/>
<path d="M2662 8258 c-15 -15 -15 -41 0 -56 9 -9 10 -15 2 -20 -6 -4 -14 -23
-18 -44 -5 -28 -13 -38 -36 -47 -37 -12 -38 -25 -4 -56 32 -30 48 -32 39 -5
-7 21 14 69 39 89 10 9 13 22 9 41 -3 19 0 34 10 45 11 11 14 22 8 38 -10 26
-31 33 -49 15z"/>
<path d="M3200 8263 c0 -5 4 -15 10 -23 11 -18 25 -7 17 15 -6 15 -27 21 -27
8z"/>
<path d="M2057 8229 c-9 -6 -17 -17 -17 -26 0 -9 -8 -30 -19 -47 -27 -46 -35
-86 -16 -86 8 0 15 4 15 9 0 5 16 32 35 61 46 68 47 114 2 89z"/>
<path d="M2365 8230 c-3 -5 -3 -15 0 -20 7 -12 45 5 45 20 0 13 -37 13 -45 0z"/>
<path d="M6020 8225 c0 -9 5 -15 11 -13 6 2 11 8 11 13 0 5 -5 11 -11 13 -6 2
-11 -4 -11 -13z"/>
<path d="M6710 8231 c0 -11 48 -24 61 -16 5 4 7 11 4 16 -8 12 -65 12 -65 0z"/>
<path d="M3102 8218 c-7 -7 -12 -20 -12 -30 0 -16 3 -17 20 -8 11 6 20 20 20
30 0 23 -10 26 -28 8z"/>
<path d="M3236 8195 c-10 -14 -16 -33 -14 -42 4 -22 28 -29 28 -8 0 9 13 22
30 28 31 12 41 37 16 37 -8 0 -21 2 -29 6 -8 3 -21 -6 -31 -21z"/>
<path d="M2172 8191 c-36 -19 -65 -64 -60 -95 3 -19 5 -18 18 8 16 32 63 54
116 55 27 1 64 25 53 35 -2 2 -24 6 -49 9 -32 4 -54 1 -78 -12z"/>
<path d="M6625 8200 c3 -5 13 -10 21 -10 8 0 14 5 14 10 0 6 -9 10 -21 10 -11
0 -17 -4 -14 -10z"/>
<path d="M1600 8138 c-25 -34 -62 -76 -117 -132 -18 -18 -33 -35 -33 -38 0 -6
-7 -15 -69 -89 -35 -42 -39 -58 -13 -61 48 -4 67 6 121 65 31 33 63 68 71 77
29 32 42 62 32 72 -6 6 -8 17 -5 25 4 11 8 10 18 -3 30 -42 71 38 46 92 -14
32 -23 30 -51 -8z"/>
<path d="M2430 8136 c0 -30 26 -54 42 -38 17 17 1 62 -22 62 -14 0 -20 -7 -20
-24z"/>
<path d="M3020 8132 c0 -16 -7 -42 -14 -58 -8 -15 -13 -31 -10 -36 10 -16 24
-8 30 17 3 14 15 30 26 36 28 15 21 63 -9 67 -19 3 -23 -1 -23 -26z"/>
<path d="M6735 8150 c-3 -5 -4 -14 0 -19 8 -14 65 -41 84 -41 9 0 27 -7 40
-16 15 -11 34 -14 56 -11 25 4 38 1 51 -14 9 -10 28 -19 41 -19 13 0 36 -6 51
-14 54 -27 172 -31 172 -5 0 5 -17 9 -38 9 -21 0 -46 6 -57 14 -19 13 -50 20
-202 47 -55 9 -73 16 -76 30 -3 12 -14 19 -29 19 -12 0 -32 7 -42 15 -23 17
-42 19 -51 5z"/>
<path d="M3354 8139 c-4 -6 0 -15 7 -20 20 -13 64 -6 64 10 0 17 -61 25 -71
10z"/>
<path d="M2304 8105 c-8 -34 -38 -49 -65 -35 -26 14 -37 5 -22 -18 12 -20 43
-20 93 -1 86 34 106 79 36 79 -30 0 -37 -4 -42 -25z"/>
<path d="M2760 8096 c0 -29 5 -32 68 -39 36 -4 42 -3 42 14 0 20 -28 35 -82
46 -25 5 -28 3 -28 -21z"/>
<path d="M3122 8109 c2 -7 10 -15 17 -17 8 -3 12 1 9 9 -2 7 -10 15 -17 17 -8
3 -12 -1 -9 -9z"/>
<path d="M3259 8101 c13 -24 50 -34 57 -16 9 22 -5 35 -37 35 -26 0 -28 -2
-20 -19z"/>
<path d="M3375 8086 c-16 -12 -17 -16 -6 -30 7 -9 21 -16 30 -16 17 0 61 39
61 53 0 13 -66 7 -85 -7z"/>
<path d="M6215 8080 c-3 -6 1 -13 10 -16 19 -8 30 0 20 15 -8 14 -22 14 -30 1z"/>
<path d="M6120 8046 c0 -18 30 -30 43 -17 5 5 6 14 3 20 -10 16 -46 13 -46 -3z"/>
<path d="M4720 8046 c0 -2 7 -9 15 -16 12 -10 15 -10 15 4 0 9 -7 16 -15 16
-8 0 -15 -2 -15 -4z"/>
<path d="M6277 8044 c-14 -14 -7 -43 13 -54 23 -12 35 4 28 37 -3 18 -29 29
-41 17z"/>
<path d="M2051 8027 c-12 -15 -5 -27 16 -27 7 0 13 9 13 20 0 23 -13 26 -29 7z"/>
<path d="M2334 8023 c-4 -12 -15 -25 -25 -28 -21 -7 -25 -20 -9 -30 5 -3 18 3
28 13 11 11 26 22 33 25 11 4 10 8 -4 23 -17 18 -18 18 -23 -3z"/>
<path d="M2742 8011 c-29 -40 -34 -70 -18 -106 8 -16 15 -23 15 -15 2 37 23
90 35 90 8 0 19 7 26 15 10 12 10 18 0 30 -18 22 -34 18 -58 -14z"/>
<path d="M2179 8018 c-1 -7 -1 -16 0 -20 0 -4 -6 -22 -14 -41 -14 -33 -13 -36
9 -50 22 -15 25 -14 45 4 25 23 29 77 6 85 -8 4 -15 12 -15 20 0 17 -30 19
-31 2z"/>
<path d="M3060 8011 c0 -24 17 -27 44 -6 16 12 17 15 4 15 -9 0 -23 3 -32 6
-12 4 -16 0 -16 -15z"/>
<path d="M1684 8004 c3 -9 6 -26 6 -39 0 -17 7 -24 28 -28 15 -3 41 -9 57 -13
29 -7 29 -6 14 12 -9 10 -20 28 -23 40 -6 21 -44 44 -73 44 -10 0 -13 -6 -9
-16z"/>
<path d="M2541 8011 c-8 -6 -12 -19 -9 -35 3 -15 1 -29 -3 -32 -5 -3 -9 -12
-9 -20 0 -21 28 -17 41 7 7 14 17 19 30 16 31 -8 33 13 3 44 -30 32 -33 33
-53 20z"/>
<path d="M685 7990 c-4 -6 -3 -16 3 -22 6 -6 12 -6 17 2 4 6 3 16 -3 22 -6 6
-12 6 -17 -2z"/>
<path d="M3287 7993 c-15 -14 -7 -43 13 -43 16 0 40 26 40 44 0 8 -45 7 -53
-1z"/>
<path d="M6040 7980 c-14 -10 -22 -22 -18 -25 9 -9 48 17 48 32 0 16 0 16 -30
-7z"/>
<path d="M6340 7975 c-18 -21 -3 -55 25 -55 15 0 26 7 30 20 7 23 -10 50 -30
50 -7 0 -18 -7 -25 -15z"/>
<path d="M3630 7951 c0 -18 -8 -34 -22 -44 -18 -11 -20 -18 -12 -27 21 -22 46
-6 61 39 12 36 12 45 1 52 -22 14 -28 10 -28 -20z"/>
<path d="M2058 7956 c-23 -17 -23 -36 0 -36 18 0 52 29 52 43 0 12 -34 7 -52
-7z"/>
<path d="M1843 7940 c3 -11 1 -20 -4 -20 -5 0 -9 -8 -9 -18 0 -14 8 -19 33
-19 17 -1 43 -3 57 -5 21 -2 26 2 28 25 4 30 -21 48 -41 28 -16 -16 -24 -14
-30 9 -3 11 -13 20 -22 20 -12 0 -16 -6 -12 -20z"/>
<path d="M1650 7913 c0 -10 -21 -40 -46 -67 -25 -26 -42 -52 -37 -56 14 -13
101 -22 108 -10 3 5 15 10 26 10 16 0 18 5 13 27 -7 26 -6 26 35 20 39 -5 42
-3 39 16 -2 13 -14 24 -33 30 -16 5 -39 18 -51 28 -26 24 -54 25 -54 2z"/>
<path d="M6210 7905 c-24 -14 -24 -14 -4 -15 12 0 24 7 28 15 6 18 7 18 -24 0z"/>
<path d="M6404 7906 c-3 -7 -4 -17 -3 -22 4 -24 -4 -33 -33 -36 -27 -2 -32 -7
-30 -23 2 -11 17 -32 34 -47 26 -24 31 -36 35 -93 4 -47 2 -69 -8 -82 -13 -15
-12 -16 11 -9 14 4 40 10 58 13 48 8 62 48 29 77 -30 26 -67 87 -67 111 0 9 8
30 17 45 15 27 15 30 -1 54 -18 29 -34 33 -42 12z"/>
<path d="M2337 7904 c-3 -3 -3 -21 0 -40 4 -25 2 -35 -11 -40 -9 -3 -16 -12
-16 -20 0 -17 5 -17 30 -4 15 8 19 21 18 60 0 46 -6 59 -21 44z"/>
<path d="M2425 7900 c-11 -18 6 -30 32 -24 24 6 25 5 19 -20 -5 -19 -2 -28 10
-33 17 -6 34 12 34 37 0 8 -16 23 -36 33 -40 20 -50 21 -59 7z"/>
<path d="M3486 7898 c-9 -5 -16 -18 -16 -28 0 -11 -7 -20 -15 -20 -8 0 -15 9
-15 20 0 16 -7 20 -31 20 -24 0 -30 -4 -27 -17 2 -10 13 -22 25 -28 12 -5 24
-20 28 -32 8 -32 24 -29 36 7 8 21 18 30 33 30 24 0 46 17 46 36 0 15 -43 23
-64 12z"/>
<path d="M4885 7901 c-6 -11 9 -23 19 -14 9 9 7 23 -3 23 -6 0 -12 -4 -16 -9z"/>
<path d="M2250 7875 c0 -8 7 -15 16 -15 14 0 14 3 4 15 -7 8 -14 15 -16 15 -2
0 -4 -7 -4 -15z"/>
<path d="M2630 7865 c-7 -8 -24 -15 -39 -15 -14 0 -32 -4 -40 -9 -11 -7 -7
-14 20 -30 43 -26 47 -26 92 4 44 30 46 42 11 55 -32 12 -29 13 -44 -5z"/>
<path d="M2114 7849 c-11 -18 13 -34 31 -19 8 7 15 16 15 21 0 13 -38 11 -46
-2z"/>
<path d="M1962 7820 c-26 -35 -27 -43 -7 -60 8 -7 15 -20 15 -30 0 -33 33 -83
61 -94 16 -5 28 -15 28 -21 -5 -39 33 -90 115 -154 63 -50 126 -33 126 33 0
25 3 27 25 22 18 -5 25 -2 25 9 0 8 -8 15 -19 15 -10 0 -30 9 -44 20 -25 20
-25 20 -51 -1 -29 -23 -60 -19 -76 12 -6 10 -21 19 -34 19 -19 0 -22 4 -18 30
3 25 0 31 -22 40 -14 5 -26 14 -26 19 0 5 -13 14 -30 21 -16 7 -27 16 -25 21
9 14 95 23 108 10 18 -18 47 -13 56 12 14 34 -13 50 -71 42 -43 -5 -49 -3 -64
20 -29 44 -48 48 -72 15z"/>
<path d="M2950 7825 c-11 -13 -11 -19 3 -33 20 -19 41 -5 35 24 -4 24 -22 28
-38 9z"/>
<path d="M873 7813 c-27 -5 -28 -11 -7 -38 12 -16 18 -18 34 -7 29 18 39 15
50 -13 15 -39 37 -31 42 14 3 37 1 40 -26 45 -30 6 -57 6 -93 -1z"/>
<path d="M1091 7806 c-7 -9 -20 -16 -27 -16 -8 0 -14 -7 -14 -15 0 -17 34 -37
69 -41 13 -2 31 -10 40 -18 10 -9 29 -16 42 -16 19 0 38 -16 75 -60 27 -33 52
-60 55 -60 4 0 9 7 13 15 3 8 1 15 -4 15 -17 0 -40 32 -40 56 0 19 -6 26 -29
30 -34 7 -66 38 -56 54 9 14 42 4 80 -25 17 -12 45 -26 63 -29 32 -8 43 -29
20 -40 -7 -3 -3 -3 10 0 17 4 28 -1 43 -19 19 -25 102 -77 123 -77 6 0 29 -21
51 -46 94 -106 165 -171 208 -187 10 -4 15 -11 12 -17 -4 -6 1 -25 10 -43 9
-17 23 -67 31 -110 14 -75 14 -79 -6 -104 -11 -14 -20 -31 -20 -38 0 -7 -11
-20 -25 -29 -14 -9 -29 -33 -35 -56 -13 -48 -76 -115 -117 -123 -27 -6 -133
-94 -133 -109 0 -14 20 -8 60 17 51 32 78 32 90 -1 8 -21 15 -25 42 -22 31 3
33 5 33 44 0 37 7 49 55 101 38 41 69 87 100 155 37 80 49 97 69 100 14 2 26
9 29 15 4 13 -3 17 -49 27 -25 5 -27 11 -37 83 -9 72 -8 82 13 128 13 28 46
75 75 104 28 29 50 55 47 57 -11 11 -61 -20 -121 -77 -75 -69 -69 -69 -139 6
-77 82 -161 165 -168 165 -4 0 -20 10 -36 23 -15 13 -50 32 -78 42 -27 10 -67
35 -88 56 -73 72 -120 93 -227 97 -79 3 -98 1 -109 -12z m84 -36 c4 -6 -7 -10
-24 -10 -17 0 -31 5 -31 10 0 6 11 10 24 10 14 0 28 -4 31 -10z"/>
<path d="M2848 7813 c-3 -4 -8 -20 -12 -35 -5 -21 -3 -28 9 -28 18 0 32 47 17
62 -5 5 -12 6 -14 1z"/>
<path d="M2458 7792 c-14 -2 -32 -10 -38 -18 -7 -8 -21 -14 -31 -14 -11 0 -19
-7 -19 -15 0 -21 38 -19 88 5 57 28 57 50 0 42z"/>
<path d="M2240 7778 c0 -23 18 -41 33 -35 8 3 19 1 25 -5 12 -12 35 -1 27 13
-4 5 -14 9 -25 9 -10 0 -20 7 -24 15 -7 18 -36 20 -36 3z"/>
<path d="M3210 7775 c0 -9 5 -15 11 -13 6 2 11 8 11 13 0 5 -5 11 -11 13 -6 2
-11 -4 -11 -13z"/>
<path d="M1470 7768 c0 -11 68 -10 74 1 3 5 -12 8 -34 7 -22 0 -40 -4 -40 -8z"/>
<path d="M1776 7761 c-13 -14 -14 -21 -5 -27 7 -4 17 0 24 9 7 10 20 17 29 17
9 0 16 5 16 10 0 17 -46 11 -64 -9z"/>
<path d="M3102 7768 c-7 -7 -12 -20 -12 -30 0 -15 3 -17 20 -8 10 6 25 9 32 8
7 -2 14 7 16 20 3 17 -1 22 -20 22 -13 0 -29 -5 -36 -12z"/>
<path d="M2754 7726 c-8 -22 3 -33 18 -18 9 9 9 15 0 24 -9 9 -13 7 -18 -6z"/>
<path d="M2906 7733 c-12 -12 -6 -33 9 -33 8 0 15 6 15 14 0 17 -14 28 -24 19z"/>
<path d="M616 7722 c-8 -13 23 -52 40 -52 15 0 74 -38 86 -55 3 -5 24 -29 45
-51 21 -23 49 -56 63 -74 14 -17 46 -55 73 -83 31 -34 45 -57 41 -69 -3 -11 4
-25 20 -39 26 -23 31 -45 20 -86 -5 -19 -13 -23 -43 -23 -44 0 -55 8 -39 27
24 29 -8 38 -125 35 -62 -1 -130 3 -152 9 -23 6 -59 9 -80 7 l-40 -4 37 -17
c21 -10 73 -20 115 -23 43 -3 95 -12 116 -20 20 -8 51 -14 67 -14 46 0 36 -18
-15 -25 -24 -4 -50 -13 -56 -21 -6 -8 -22 -14 -34 -14 -13 0 -36 -7 -51 -15
-16 -8 -36 -15 -45 -15 -8 0 -24 -7 -35 -15 -10 -8 -41 -15 -67 -15 -40 0 -52
-5 -72 -27 -22 -26 -29 -28 -117 -31 -51 -2 -97 -8 -102 -13 -14 -13 34 -27
75 -22 20 3 40 0 43 -6 8 -12 -54 -54 -104 -70 -19 -7 -48 -22 -63 -35 l-29
-23 26 -7 c18 -4 44 2 84 21 31 15 64 30 72 33 15 5 110 64 162 101 15 10 35
19 45 19 10 0 27 7 37 15 11 8 28 15 38 15 10 0 43 14 73 30 30 17 67 30 81
30 14 0 44 14 66 31 29 24 42 29 51 20 16 -16 37 -14 58 5 16 15 23 14 81 -5
66 -22 202 -95 251 -135 24 -20 29 -33 34 -85 5 -51 2 -69 -14 -99 -12 -20
-24 -48 -28 -62 -4 -14 -18 -37 -32 -51 -34 -37 -15 -44 31 -12 34 22 41 24
62 12 28 -15 40 -7 26 17 -11 20 1 65 30 106 23 34 23 60 -2 83 -11 10 -20 23
-20 29 1 18 33 50 63 63 25 12 27 17 27 73 0 62 20 126 53 172 11 15 17 34 14
42 -11 28 -45 18 -69 -19 -27 -41 -57 -52 -98 -35 -32 13 -77 94 -120 215 -12
33 -25 68 -30 77 -6 10 -15 39 -20 65 -12 52 -25 73 -46 73 -16 0 -20 -65 -5
-74 5 -4 12 -25 16 -49 4 -23 11 -46 15 -52 4 -5 11 -25 15 -44 7 -34 87 -175
106 -186 5 -4 9 -11 9 -17 0 -8 -22 -9 -72 -3 -127 13 -133 12 -133 -10 0 -14
8 -21 25 -23 14 -2 31 -9 38 -14 7 -6 34 -15 60 -20 26 -6 65 -14 87 -19 22
-6 49 -11 59 -13 28 -4 30 -18 6 -44 -25 -26 -25 -28 0 -35 28 -7 27 -53 -1
-62 -15 -5 -25 -1 -36 14 -8 12 -20 26 -26 31 -85 70 -129 101 -167 116 -25
10 -55 28 -67 41 -20 21 -20 24 -5 33 15 9 14 12 -11 31 -15 12 -35 35 -44 53
-15 29 -86 117 -145 180 -16 17 -28 34 -28 38 0 5 -21 31 -47 59 -32 34 -70
61 -121 85 -84 38 -79 37 -86 26z"/>
<path d="M1857 7724 c-10 -11 3 -24 24 -24 23 0 25 15 3 24 -19 7 -19 7 -27 0z"/>
<path d="M2553 7712 c-3 -11 -13 -22 -24 -25 -11 -3 -19 -14 -19 -26 0 -11
-15 -32 -35 -47 -40 -30 -44 -48 -14 -64 34 -19 49 -5 49 45 0 47 9 56 30 30
12 -14 17 -12 47 17 43 42 43 81 0 86 -22 3 -30 -1 -34 -16z"/>
<path d="M5950 7695 c-18 -22 -8 -48 23 -56 15 -4 27 -6 27 -4 0 7 -31 75 -34
75 -2 0 -9 -7 -16 -15z"/>
<path d="M2996 7684 c-9 -22 -8 -24 9 -24 8 0 15 6 15 14 0 22 -17 28 -24 10z"/>
<path d="M2273 7657 c-10 -16 14 -28 48 -25 22 2 35 9 37 20 3 14 -4 17 -38
15 -23 -1 -44 -5 -47 -10z"/>
<path d="M6207 7653 c-13 -12 -7 -54 9 -60 25 -10 39 12 26 42 -12 25 -23 31
-35 18z"/>
<path d="M2708 7639 c-19 -11 -25 -69 -8 -69 6 0 10 4 10 10 0 5 9 18 21 29
12 11 18 24 14 30 -8 13 -15 13 -37 0z"/>
<path d="M3562 7599 c2 -6 8 -10 13 -10 5 0 11 4 13 10 2 6 -4 11 -13 11 -9 0
-15 -5 -13 -11z"/>
<path d="M2817 7593 c-14 -14 -7 -43 11 -43 26 0 33 10 21 31 -10 20 -21 24
-32 12z"/>
<path d="M6535 7583 c-31 -4 -31 -5 -58 -126 -15 -67 -34 -149 -43 -182 -9
-33 -17 -77 -19 -98 -2 -21 -7 -43 -13 -50 -5 -6 -13 -32 -17 -57 -4 -25 -16
-56 -26 -69 -11 -13 -19 -35 -19 -50 0 -14 -7 -35 -15 -45 -8 -11 -29 -57 -46
-103 -30 -78 -33 -83 -61 -83 -16 0 -38 -5 -49 -10 -15 -9 -21 -7 -25 5 -4 9
-2 21 4 27 7 7 5 18 -4 36 -8 15 -14 37 -14 48 0 19 -17 34 -37 34 -3 0 -2
-12 1 -26 4 -14 2 -32 -4 -39 -8 -10 -7 -22 5 -45 12 -23 14 -35 6 -43 -17
-17 -13 -24 14 -31 24 -6 45 -40 45 -69 0 -7 -12 -21 -27 -31 -25 -18 -27 -18
-39 -1 -11 14 -10 21 3 41 19 29 10 43 -17 26 -26 -16 -55 -15 -69 2 -7 8 -21
12 -31 9 -11 -3 -20 0 -20 6 0 6 -7 11 -15 11 -25 0 -5 -30 31 -45 41 -17 42
-30 9 -75 -14 -19 -25 -39 -25 -46 0 -6 -6 -17 -14 -24 -8 -6 -16 -26 -18 -43
-2 -26 -8 -33 -30 -35 -24 -3 -27 -6 -21 -33 7 -36 -11 -59 -45 -59 -23 0 -24
-3 -19 -35 4 -26 2 -35 -8 -35 -8 0 -26 -5 -41 -10 l-27 -11 20 -22 c20 -21
20 -33 17 -212 -1 -104 -8 -257 -14 -338 -7 -82 -9 -151 -7 -154 11 -11 27 9
27 34 0 33 29 93 45 93 32 0 28 -54 -7 -99 -10 -13 -18 -38 -18 -55 0 -18 -5
-37 -11 -43 -5 -5 -12 -25 -14 -43 -2 -17 -8 -37 -14 -44 -5 -6 -12 -30 -16
-53 -3 -23 -13 -44 -21 -47 -9 -4 -14 -21 -14 -53 0 -36 -5 -51 -19 -60 -21
-13 -31 -52 -36 -141 -4 -77 -34 -204 -46 -196 -5 3 -9 11 -9 19 0 25 -19 26
-50 4 -32 -24 -41 -45 -14 -35 21 8 54 -11 54 -32 0 -10 -9 -25 -20 -35 -11
-9 -20 -24 -20 -33 0 -16 -42 -73 -97 -132 -13 -14 -23 -34 -23 -44 0 -30 -34
-71 -85 -103 -31 -20 -55 -46 -75 -82 -15 -29 -24 -55 -20 -58 4 -3 10 2 14
10 3 8 14 15 24 15 11 0 43 27 73 60 41 45 61 60 82 60 15 0 27 6 27 13 0 17
58 130 73 142 23 19 53 70 71 120 10 28 24 59 30 70 7 11 20 47 30 80 10 33
23 71 27 83 5 13 12 58 15 100 5 54 15 95 35 137 48 102 149 460 149 528 0 20
9 41 27 59 24 26 25 29 11 45 -15 17 -15 20 1 39 19 24 21 106 2 112 -6 2 -11
12 -11 22 0 23 -18 36 -44 31 -16 -2 -17 1 -11 21 4 12 8 45 9 73 1 42 5 51
26 62 14 7 42 13 63 13 20 0 37 4 37 8 0 15 -25 40 -47 47 -18 5 -22 3 -17 -9
4 -10 -1 -18 -10 -22 -20 -8 -21 -6 -30 23 -6 18 4 34 53 83 34 34 61 66 61
71 0 5 24 33 53 62 47 48 67 71 132 148 23 27 55 95 55 115 0 7 19 41 43 76
35 52 84 147 111 218 4 8 15 29 25 45 11 17 20 42 20 56 1 15 8 43 16 62 8 20
15 50 15 67 0 17 7 38 15 46 8 9 15 30 15 48 0 19 6 39 14 45 8 7 16 31 19 54
6 52 12 83 25 124 10 31 6 75 -7 71 -3 0 -20 -3 -36 -5z m-459 -1088 c8 -19
-22 -65 -41 -65 -19 0 -28 35 -15 60 13 23 48 27 56 5z m-189 -598 c31 -12 31
-12 17 -46 -10 -24 -18 -31 -30 -27 -9 3 -24 6 -34 6 -24 0 -39 58 -19 71 17
11 26 10 66 -4z"/>
<path d="M3300 7565 c0 -9 5 -15 11 -13 6 2 11 8 11 13 0 5 -5 11 -11 13 -6 2
-11 -4 -11 -13z"/>
<path d="M3837 7574 c-4 -4 -7 -14 -7 -23 0 -11 3 -12 11 -4 6 6 10 16 7 23
-2 6 -7 8 -11 4z"/>
<path d="M6956 7571 c-3 -4 6 -13 20 -20 32 -14 34 -14 34 3 0 21 -43 35 -54
17z"/>
<path d="M6023 7554 c-3 -8 4 -25 16 -38 11 -12 21 -28 21 -34 0 -7 5 -12 10
-12 13 0 13 29 -1 69 -12 33 -36 41 -46 15z"/>
<path d="M6147 7563 c-4 -3 -7 -12 -7 -20 0 -15 26 -18 34 -4 7 11 -18 33 -27
24z"/>
<path d="M3655 7547 c-4 -10 -5 -21 -1 -24 10 -10 18 4 13 24 -4 17 -4 17 -12
0z"/>
<path d="M2947 7544 c-11 -11 3 -24 24 -24 12 0 19 5 17 13 -5 14 -31 21 -41
11z"/>
<path d="M3116 7538 c-4 -9 -3 -25 2 -35 6 -10 8 -31 5 -46 -4 -20 -1 -27 10
-27 23 0 31 18 16 36 -7 8 -15 32 -19 52 -5 27 -9 33 -14 20z"/>
<path d="M6232 7489 c3 -32 12 -58 25 -71 l20 -20 7 36 c4 20 4 52 0 71 -5 29
-11 35 -31 35 -25 0 -25 -2 -21 -51z"/>
<path d="M6386 7513 c10 -40 14 -41 14 -5 0 18 -5 32 -10 32 -6 0 -8 -11 -4
-27z"/>
<path d="M7095 7520 c-9 -15 4 -30 26 -30 22 0 24 11 7 28 -15 15 -25 15 -33
2z"/>
<path d="M2730 7504 c0 -11 5 -14 16 -10 9 3 22 6 30 6 9 0 12 5 9 10 -10 17
-55 12 -55 -6z"/>
<path d="M7190 7501 c0 -21 13 -41 26 -41 8 0 14 10 14 25 0 18 -5 25 -20 25
-11 0 -20 -4 -20 -9z"/>
<path d="M4050 7485 c0 -9 5 -15 11 -13 6 2 11 8 11 13 0 5 -5 11 -11 13 -6 2
-11 -4 -11 -13z"/>
<path d="M2870 7486 c0 -3 4 -16 10 -30 10 -27 43 -34 85 -16 20 8 20 8 0 15
-11 3 -35 13 -53 21 -35 15 -42 17 -42 10z"/>
<path d="M3680 7465 c12 -15 30 -12 30 6 0 5 -10 9 -21 9 -18 0 -19 -2 -9 -15z"/>
<path d="M2810 7450 c0 -5 7 -10 15 -10 8 0 15 5 15 10 0 6 -7 10 -15 10 -8 0
-15 -4 -15 -10z"/>
<path d="M3550 7420 c-14 -17 -31 -37 -39 -46 -11 -13 -11 -18 3 -33 9 -10 16
-23 16 -29 0 -7 4 -12 9 -12 10 0 21 34 21 68 0 14 9 27 25 34 28 13 30 19 13
36 -17 17 -21 16 -48 -18z"/>
<path d="M3237 7434 c-16 -16 -6 -35 16 -32 12 2 22 10 22 18 0 16 -26 25 -38
14z"/>
<path d="M3327 7433 c-14 -13 -6 -33 12 -33 25 0 38 20 20 31 -17 11 -24 11
-32 2z"/>
<path d="M2570 7407 c0 -25 17 -47 37 -47 16 0 17 42 1 58 -19 19 -38 14 -38
-11z"/>
<path d="M3967 7423 c-22 -6 -12 -23 14 -23 10 0 19 7 19 15 0 15 -2 16 -33 8z"/>
<path d="M2364 7395 c-13 -50 29 -55 57 -6 l16 27 -34 1 c-27 1 -34 -3 -39
-22z"/>
<path d="M3165 7399 c-4 -12 -2 -26 4 -32 15 -15 44 14 35 36 -9 24 -31 21
-39 -4z"/>
<path d="M2243 7394 c-3 -8 -3 -56 -1 -105 3 -49 2 -89 -2 -89 -10 0 -30 -56
-30 -85 0 -12 -8 -29 -18 -39 -11 -9 -31 -41 -47 -71 -33 -67 -57 -86 -129
-109 -30 -10 -60 -24 -67 -32 -10 -13 -6 -14 28 -8 36 5 42 4 48 -16 5 -17 -4
-33 -47 -78 -29 -31 -59 -59 -67 -60 -10 -3 -12 -14 -7 -42 8 -48 -7 -59 -42
-33 -44 32 -62 35 -96 14 -33 -20 -123 -34 -131 -20 -8 12 -33 0 -61 -27 -32
-32 -47 -30 -88 12 -34 35 -37 36 -66 24 -43 -18 -145 -7 -180 19 -29 21 -48
17 -28 -6 9 -11 4 -13 -28 -7 -30 4 -43 2 -53 -10 -7 -9 -22 -16 -32 -16 -11
0 -42 -11 -69 -24 -28 -13 -68 -27 -90 -31 -36 -6 -39 -5 -34 12 5 16 4 16 -8
3 -7 -8 -27 -22 -43 -30 -17 -9 -38 -31 -47 -49 -9 -18 -28 -46 -42 -60 -14
-15 -26 -30 -26 -34 0 -4 -20 -33 -44 -64 -74 -98 -271 -409 -289 -455 -3 -10
-11 -18 -17 -18 -5 0 -10 -7 -10 -15 0 -20 -73 -124 -119 -169 -22 -21 -51
-40 -66 -41 -14 -2 -32 -8 -39 -14 -15 -13 -27 -5 -20 13 3 7 -2 19 -10 26
-13 10 -17 10 -21 -2 -3 -8 -5 -21 -3 -29 2 -8 -7 -15 -19 -17 -13 -2 -36 -17
-53 -33 -27 -28 -30 -37 -30 -95 0 -35 2 -64 5 -64 2 0 23 19 47 41 46 45 150
116 208 143 19 9 49 26 65 39 89 67 119 87 132 87 14 0 16 1 110 48 35 18 71
32 81 32 10 0 27 7 38 15 10 8 33 15 49 15 17 0 43 7 59 15 15 8 42 15 60 15
17 0 49 5 71 11 22 6 60 14 85 20 25 5 56 14 70 19 14 6 63 12 110 15 47 2
112 9 145 15 33 6 71 11 85 10 80 -3 111 -1 123 9 14 11 106 9 162 -4 23 -5
37 -1 58 15 17 13 26 28 23 37 -3 8 0 26 8 41 16 33 28 102 17 102 -11 0 -34
-29 -64 -81 -15 -27 -36 -49 -49 -53 -38 -10 -125 -7 -152 5 -41 19 -49 94
-16 144 11 17 20 38 20 48 0 20 26 23 37 3 4 -7 21 -28 37 -47 24 -28 30 -31
40 -19 19 25 74 60 93 60 10 0 33 -9 51 -20 32 -20 32 -20 32 0 0 13 10 24 25
30 20 8 23 13 16 32 -11 29 -33 30 -41 1 -4 -20 -7 -21 -30 -10 -13 7 -29 21
-35 32 -6 11 -18 31 -27 45 -9 14 -19 36 -23 49 -7 22 -6 23 34 16 23 -4 41
-4 41 -1 0 2 -13 19 -29 37 -35 38 -61 34 -61 -9 0 -28 -26 -62 -48 -62 -15 0
-22 26 -25 94 -2 47 1 60 17 72 29 21 99 18 129 -6 35 -28 107 -27 133 1 10
12 18 30 16 40 -2 10 2 19 8 19 6 0 17 15 25 33 7 17 32 50 54 72 23 21 41 45
41 53 0 7 17 20 37 28 31 14 34 17 20 25 -9 6 -17 17 -17 25 0 25 56 74 84 74
30 0 31 3 14 31 -11 18 -10 23 11 40 25 20 51 25 51 10 0 -6 -4 -13 -10 -16
-5 -3 -10 -16 -10 -29 0 -12 -5 -27 -12 -34 -19 -19 6 -62 37 -62 25 0 33 14
15 25 -17 10 -11 52 9 66 27 19 17 67 -15 79 -29 11 -29 16 -3 59 11 18 18 40
14 48 -6 16 31 83 46 83 15 0 10 19 -12 50 -20 26 -21 37 -15 99 l6 71 -30 0
c-19 0 -33 -6 -37 -16z m-694 -858 c59 -1 74 -15 47 -44 -13 -15 -13 -22 -2
-43 15 -30 19 -136 5 -145 -17 -10 -48 7 -51 29 -2 12 -11 23 -21 25 -24 5
-33 -26 -12 -42 25 -18 12 -49 -28 -67 -18 -8 -38 -28 -47 -46 -12 -27 -21
-33 -47 -33 -28 0 -33 -4 -33 -25 0 -14 2 -25 4 -25 2 0 11 -3 20 -6 10 -4 28
8 50 32 22 24 39 35 50 31 23 -9 20 -38 -4 -44 -11 -3 -23 -16 -26 -28 -3 -13
-17 -33 -30 -46 -13 -12 -24 -28 -24 -35 0 -28 -21 -24 -31 6 -14 39 -42 37
-49 -5 -7 -38 -32 -43 -50 -10 -12 22 -11 27 8 48 28 29 30 77 4 77 -34 0 -64
-44 -61 -88 3 -34 -1 -44 -24 -62 -18 -14 -34 -19 -48 -15 -12 4 -32 1 -45 -6
-21 -11 -28 -10 -52 8 -28 20 -29 21 -40 2 -8 -12 -24 -19 -45 -19 -20 0 -42
-8 -56 -21 -21 -20 -26 -21 -62 -9 -41 14 -69 7 -110 -28 -9 -7 -40 -14 -68
-14 -28 -1 -51 -5 -51 -9 0 -15 -95 -69 -122 -69 -27 0 -39 22 -19 35 6 3 21
31 36 63 14 31 30 64 35 72 5 8 17 29 26 45 9 17 33 53 54 80 20 28 40 61 45
73 6 20 55 91 120 177 8 10 15 23 15 28 0 5 23 33 51 62 47 49 57 55 122 68
40 8 95 20 122 25 30 7 118 8 220 5 94 -3 194 -6 224 -7z m179 -242 c2 -18 -3
-36 -12 -43 -19 -16 -78 -24 -95 -12 -19 13 -6 41 19 41 12 0 25 10 32 25 17
37 52 30 56 -11z m-233 -264 c0 -22 -39 -19 -43 3 -3 15 1 18 20 15 12 -2 23
-10 23 -18z"/>
<path d="M1450 6301 c0 -10 -38 -34 -72 -47 -18 -6 -25 -39 -10 -48 8 -4 112
89 112 100 0 2 -7 4 -15 4 -8 0 -15 -4 -15 -9z"/>
<path d="M1107 6136 c-4 -10 -5 -21 -2 -24 9 -9 17 6 13 25 -3 17 -4 17 -11
-1z"/>
<path d="M2851 7377 c-6 -16 -12 -43 -14 -60 -2 -28 1 -32 23 -32 23 0 25 3
23 42 -1 24 -6 51 -12 60 -9 16 -11 15 -20 -10z"/>
<path d="M3055 7350 c-14 -22 -25 -48 -25 -57 0 -26 -12 -40 -43 -52 -30 -12
-36 -41 -12 -61 18 -15 40 -1 50 31 4 10 15 19 25 19 28 0 42 33 30 66 -11 28
-1 43 27 44 19 0 26 20 13 35 -20 24 -38 17 -65 -25z"/>
<path d="M3710 7370 c0 -29 30 -38 46 -15 21 28 17 35 -16 35 -23 0 -30 -4
-30 -20z"/>
<path d="M5090 7365 c0 -8 5 -15 10 -15 6 0 10 7 10 15 0 8 -4 15 -10 15 -5 0
-10 -7 -10 -15z"/>
<path d="M6085 7367 c-27 -21 -10 -40 28 -32 42 9 56 23 37 35 -21 14 -43 12
-65 -3z"/>
<path d="M6226 7364 c-22 -21 -31 -64 -19 -83 9 -12 5 -21 -16 -38 -26 -22
-26 -22 -8 -53 9 -17 17 -40 17 -50 0 -23 29 -40 68 -40 38 0 72 37 72 79 0
24 8 39 30 58 17 13 28 29 24 34 -9 16 -42 10 -49 -9 -3 -11 -17 -24 -30 -30
-16 -8 -25 -20 -25 -35 0 -30 -17 -46 -41 -40 -48 13 -43 77 7 89 18 5 23 11
18 23 -3 9 -9 35 -11 59 -7 49 -15 58 -37 36z"/>
<path d="M3240 7362 c0 -14 45 -52 63 -52 21 0 47 -38 47 -71 0 -43 12 -42 35
3 20 40 21 45 6 83 -19 52 -20 53 -34 34 -7 -9 -22 -19 -33 -23 -16 -5 -23 -2
-27 14 -3 14 -13 20 -31 20 -14 0 -26 -4 -26 -8z"/>
<path d="M4244 7345 c-9 -23 3 -45 26 -45 25 0 28 45 4 54 -22 8 -24 8 -30 -9z"/>
<path d="M2340 7330 c0 -5 7 -10 15 -10 8 0 15 5 15 10 0 6 -7 10 -15 10 -8 0
-15 -4 -15 -10z"/>
<path d="M2640 7328 c0 -6 9 -21 20 -33 15 -16 28 -20 56 -17 41 5 54 26 31
50 -15 14 -17 14 -23 -1 -8 -21 -28 -22 -44 -2 -15 18 -40 20 -40 3z"/>
<path d="M2967 7323 c-4 -3 -7 -15 -7 -25 0 -26 24 -17 28 10 3 21 -8 29 -21
15z"/>
<path d="M3113 7295 c-7 -20 8 -36 33 -35 85 3 99 6 102 23 3 13 -3 17 -25 17
-16 0 -34 -5 -40 -11 -9 -9 -18 -8 -38 5 -23 15 -26 15 -32 1z"/>
<path d="M2367 7288 c-3 -8 -2 -21 3 -27 11 -19 23 5 12 25 -8 14 -10 14 -15
2z"/>
<path d="M3501 7262 c-11 -21 2 -48 18 -38 14 9 15 56 1 56 -5 0 -14 -8 -19
-18z"/>
<path d="M3627 7274 c-8 -8 3 -34 14 -34 5 0 9 9 9 20 0 19 -11 26 -23 14z"/>
<path d="M2575 7230 c-15 -28 -14 -30 3 -30 23 0 42 19 42 42 0 28 -28 21 -45
-12z"/>
<path d="M2664 7216 c-8 -22 3 -33 18 -18 9 9 9 15 0 24 -9 9 -13 7 -18 -6z"/>
<path d="M2888 7214 c-31 -16 -32 -18 -18 -45 13 -24 40 -25 40 -1 0 10 5 23
12 30 21 21 -4 32 -34 16z"/>
<path d="M5963 7194 c-18 -20 -33 -43 -33 -51 0 -11 7 -13 33 -8 49 11 64 22
70 52 10 55 -23 59 -70 7z"/>
<path d="M2767 7202 c-17 -19 -23 -52 -10 -52 10 0 63 52 63 62 0 15 -37 8
-53 -10z"/>
<path d="M350 7201 c0 -12 37 -24 50 -16 20 12 10 25 -20 25 -16 0 -30 -4 -30
-9z"/>
<path d="M444 7179 c-10 -17 43 -28 83 -17 33 9 35 12 17 18 -28 11 -93 10
-100 -1z"/>
<path d="M2387 7166 c-8 -21 2 -85 19 -123 10 -23 22 -33 37 -33 45 0 69 -12
64 -31 -3 -11 0 -19 8 -19 16 0 24 40 14 68 -9 23 -38 29 -55 12 -6 -6 -17 -5
-31 5 -15 11 -22 30 -27 75 -7 58 -18 75 -29 46z"/>
<path d="M2473 7158 c-6 -7 -13 -21 -16 -31 -6 -15 -2 -18 16 -16 31 3 79 -11
100 -29 16 -14 17 -13 17 16 0 28 -3 32 -28 32 -16 0 -37 9 -47 20 -21 23 -29
25 -42 8z"/>
<path d="M2925 7150 c-9 -15 18 -64 38 -68 22 -4 23 25 1 56 -16 24 -29 28
-39 12z"/>
<path d="M2664 7135 c-4 -9 -2 -21 5 -28 13 -13 18 -9 23 17 4 24 -20 33 -28
11z"/>
<path d="M4800 7131 c0 -12 6 -21 16 -21 9 0 14 7 12 17 -5 25 -28 28 -28 4z"/>
<path d="M3245 7080 c3 -5 13 -10 21 -10 8 0 14 5 14 10 0 6 -9 10 -21 10 -11
0 -17 -4 -14 -10z"/>
<path d="M2725 7070 c-9 -15 4 -30 26 -30 12 0 19 7 19 20 0 21 -33 29 -45 10z"/>
<path d="M3470 7025 c0 -31 5 -47 15 -51 8 -3 17 -14 20 -25 4 -10 11 -19 16
-19 15 0 10 40 -5 46 -8 3 -17 25 -21 50 -8 57 -25 57 -25 -1z"/>
<path d="M5870 7050 c-9 -17 -6 -21 25 -34 31 -13 35 -18 26 -34 -13 -24 26
-114 47 -110 24 5 40 37 24 47 -8 5 -15 26 -16 47 -3 46 -19 80 -46 94 -28 15
-48 12 -60 -10z"/>
<path d="M3115 7040 c-7 -12 2 -30 16 -30 12 0 12 27 0 35 -5 3 -12 1 -16 -5z"/>
<path d="M1522 6999 c2 -19 10 -24 38 -27 77 -5 78 35 0 45 -40 6 -42 5 -38
-18z"/>
<path d="M770 6990 c0 -5 9 -10 20 -10 11 0 20 5 20 10 0 6 -9 10 -20 10 -11
0 -20 -4 -20 -10z"/>
<path d="M5448 6990 c12 -5 22 -16 22 -24 0 -8 5 -18 11 -22 17 -10 32 12 24
35 -5 17 -14 21 -43 20 -32 0 -34 -1 -14 -9z"/>
<path d="M2656 6977 c-16 -12 -17 -16 -5 -35 13 -21 43 -30 52 -14 2 4 -3 19
-13 34 -14 24 -19 26 -34 15z"/>
<path d="M2360 6961 c0 -5 7 -12 16 -15 14 -5 14 -8 0 -28 -9 -12 -16 -31 -16
-42 0 -11 -8 -28 -17 -38 -16 -18 -16 -21 -1 -46 26 -42 41 -33 65 42 26 79
28 83 46 67 17 -14 47 -4 47 15 0 16 -39 34 -76 34 -13 0 -24 5 -24 10 0 6 -9
10 -20 10 -11 0 -20 -4 -20 -9z"/>
<path d="M3295 6959 c-12 -19 5 -23 22 -6 16 16 16 17 1 17 -9 0 -20 -5 -23
-11z"/>
<path d="M3270 6915 c-10 -12 -10 -19 -2 -27 15 -15 48 14 38 31 -10 15 -21
14 -36 -4z"/>
<path d="M394 6855 c-16 -13 -35 -24 -43 -25 -22 0 -82 -41 -75 -51 10 -17 41
-9 82 21 23 17 46 30 52 30 13 0 32 38 22 44 -5 3 -21 -6 -38 -19z"/>
<path d="M6018 6868 c9 -9 15 -9 24 0 9 9 7 12 -12 12 -19 0 -21 -3 -12 -12z"/>
<path d="M4 6816 c-11 -29 1 -61 24 -64 17 -3 22 2 22 17 0 13 12 26 30 36 17
9 30 18 30 20 0 3 -23 5 -50 5 -35 0 -52 -5 -56 -14z"/>
<path d="M2257 6770 c-20 -23 -34 -30 -61 -30 -40 0 -47 -14 -15 -31 18 -9 27
-7 50 10 15 12 37 21 49 21 15 0 20 7 20 24 0 37 -15 39 -43 6z"/>
<path d="M6013 6775 c-9 -21 -9 -25 6 -25 17 0 44 34 34 44 -13 13 -28 5 -40
-19z"/>
<path d="M1140 6783 c0 -13 -76 -64 -127 -87 -24 -11 -43 -23 -43 -28 0 -5
-12 -20 -27 -33 -16 -13 -25 -27 -21 -31 5 -4 16 0 25 8 10 9 54 35 98 58 80
42 129 83 122 103 -4 14 -27 22 -27 10z"/>
<path d="M153 6763 c-28 -11 -10 -24 29 -21 51 4 66 28 16 27 -18 0 -39 -3
-45 -6z"/>
<path d="M3045 6730 c-3 -6 1 -13 10 -16 19 -8 30 0 20 15 -8 14 -22 14 -30 1z"/>
<path d="M5490 6727 c0 -7 9 -18 20 -24 16 -11 21 -10 29 6 9 15 6 20 -12 25
-32 8 -37 7 -37 -7z"/>
<path d="M2076 6696 c-14 -19 -26 -39 -26 -45 0 -6 20 -11 45 -11 34 0 45 4
45 15 0 16 -27 75 -34 75 -2 0 -15 -15 -30 -34z"/>
<path d="M2296 6714 c-9 -23 -8 -24 24 -24 28 0 29 2 18 20 -15 24 -34 26 -42
4z"/>
<path d="M264 6699 c-23 -11 -59 -19 -89 -19 -27 0 -63 -7 -79 -15 -15 -8 -44
-15 -62 -15 -19 0 -34 -4 -34 -10 0 -15 43 -22 71 -11 14 5 63 13 109 17 58 5
93 13 116 28 18 12 33 24 34 27 1 17 -32 16 -66 -2z"/>
<path d="M3436 6683 c10 -41 16 -47 26 -29 5 10 5 23 -2 36 -16 30 -31 25 -24
-7z"/>
<path d="M904 6686 c-10 -8 -16 -18 -11 -22 4 -4 13 -1 20 8 6 9 19 18 27 21
13 5 13 6 -1 6 -8 1 -24 -5 -35 -13z"/>
<path d="M2220 6658 c-13 -15 -17 -24 -9 -27 6 -2 14 1 18 6 3 5 14 12 24 16
9 3 17 11 17 17 0 18 -28 11 -50 -12z"/>
<path d="M2779 6670 c-11 -7 -10 -10 4 -16 10 -4 23 -2 28 3 14 14 -13 24 -32
13z"/>
<path d="M365 6641 c-25 -4 -39 -11 -37 -19 4 -19 -25 -26 -57 -12 -33 13 -71
6 -71 -14 0 -7 -18 -19 -39 -26 -33 -11 -46 -10 -85 3 -55 19 -76 14 -76 -19
0 -17 6 -24 18 -24 18 0 52 -29 52 -44 0 -4 -9 -5 -19 -1 -15 5 -18 2 -14 -14
3 -13 -1 -21 -16 -26 -17 -5 -21 -14 -21 -51 l0 -45 38 38 c20 21 50 47 66 58
15 11 49 36 74 54 45 34 49 35 126 32 45 -1 122 -6 171 -11 50 -5 106 -7 125
-4 20 3 55 1 79 -6 34 -9 46 -8 58 2 9 7 25 12 35 10 15 -3 19 1 16 15 -3 15
-13 18 -60 19 -45 0 -63 5 -81 22 -19 18 -36 22 -98 23 -40 1 -95 -1 -120 -4
-25 -3 -52 -1 -60 4 -15 10 -9 12 41 13 15 1 26 8 28 19 4 18 -2 19 -73 8z"/>
<path d="M2303 6634 c-7 -19 0 -26 21 -18 20 8 21 20 1 28 -9 3 -18 -1 -22
-10z"/>
<path d="M5517 6644 c-11 -11 3 -24 24 -24 12 0 19 5 17 13 -5 14 -31 21 -41
11z"/>
<path d="M2114 6595 c-16 -12 -17 -17 -6 -34 17 -29 15 -78 -3 -85 -9 -3 -15
-18 -15 -35 0 -42 -17 -48 -32 -10 l-13 31 -25 -20 c-20 -16 -22 -22 -12 -34
7 -9 13 -43 14 -77 1 -50 -2 -64 -18 -76 -10 -8 -22 -15 -26 -15 -15 0 -8 43
10 56 15 12 15 13 0 14 -9 0 -18 -6 -21 -12 -3 -9 -9 -7 -19 6 -11 13 -21 17
-34 12 -18 -7 -18 -8 4 -26 12 -10 27 -32 33 -49 6 -17 17 -31 25 -31 20 0 29
-27 15 -44 -8 -10 -9 -16 -1 -21 5 -3 10 -18 10 -31 0 -32 -24 -27 -28 5 -2
12 -10 25 -18 28 -8 3 -14 16 -14 29 0 24 -14 32 -24 15 -3 -5 3 -36 14 -70
25 -80 20 -95 -35 -88 -49 7 -79 -9 -73 -39 3 -16 12 -19 53 -19 60 0 82 -12
87 -45 3 -28 35 -40 50 -18 7 9 8 7 4 -8 -4 -13 0 -27 13 -38 20 -18 18 -48
-4 -66 -9 -8 -17 -4 -29 15 -10 15 -26 25 -39 25 -13 0 -29 6 -35 12 -10 10
-17 10 -32 0 -11 -6 -32 -9 -50 -6 -26 6 -30 4 -30 -14 0 -25 49 -39 79 -23
16 9 21 7 26 -9 4 -11 4 -34 0 -50 -5 -21 -3 -30 6 -30 7 0 25 -12 41 -27 22
-21 30 -24 41 -14 12 9 16 6 21 -21 4 -18 8 -56 9 -83 2 -28 6 -56 11 -63 11
-17 29 -166 28 -232 -4 -410 -6 -378 22 -419 14 -20 29 -57 32 -82 6 -40 9
-45 28 -42 13 3 28 -2 35 -11 8 -9 19 -16 26 -16 6 0 20 -9 30 -20 14 -16 31
-20 74 -20 75 0 88 9 68 46 -14 27 -15 27 -21 6 -6 -18 -15 -22 -52 -22 -40 0
-51 5 -85 40 -21 21 -39 46 -39 54 0 8 -6 19 -14 23 -23 14 -64 125 -70 190
-5 56 -4 63 18 80 19 14 25 30 29 81 3 35 1 62 -4 62 -11 0 0 81 12 95 15 15
10 52 -7 59 -9 4 -25 4 -35 1 -16 -5 -19 -1 -19 25 0 20 6 33 18 37 33 13 69
73 43 73 -13 0 -41 -29 -41 -41 0 -6 -4 -8 -9 -5 -4 3 -11 39 -13 80 -3 42
-11 83 -18 91 -23 27 -15 598 8 642 7 12 9 35 6 52 -5 25 -1 34 24 56 17 14
34 40 38 57 3 18 12 41 18 51 9 14 8 20 -7 28 -12 7 -15 17 -11 33 8 32 -16
50 -42 31z"/>
<path d="M2269 6582 c-8 -10 -24 -22 -36 -26 -13 -4 -23 -12 -23 -17 0 -17 35
-8 65 16 22 18 27 27 18 36 -8 8 -14 6 -24 -9z"/>
<path d="M2460 6565 c0 -14 5 -25 10 -25 6 0 10 11 10 25 0 14 -4 25 -10 25
-5 0 -10 -11 -10 -25z"/>
<path d="M1965 6560 c-3 -11 -11 -20 -16 -20 -6 0 -9 -17 -7 -37 3 -39 15 -49
28 -23 27 53 32 70 27 84 -9 22 -24 20 -32 -4z"/>
<path d="M3314 6525 c-15 -10 -16 -16 -7 -26 14 -15 43 -5 43 15 0 22 -15 27
-36 11z"/>
<path d="M7040 6496 c-70 -35 -118 -71 -214 -159 -115 -106 -206 -212 -206
-239 0 -12 -7 -29 -16 -39 -21 -24 -10 -55 24 -64 15 -4 68 -11 117 -16 50 -4
131 -15 180 -23 50 -8 124 -19 165 -25 41 -6 90 -13 108 -16 29 -5 32 -3 32
18 0 20 -8 25 -52 36 -29 6 -132 21 -228 32 -96 11 -194 22 -217 25 -47 6 -61
26 -34 51 10 10 23 27 29 38 10 20 29 43 106 132 23 25 66 57 100 74 34 17 70
39 82 50 11 10 34 19 50 19 17 0 35 5 40 10 8 8 19 8 38 0 15 -5 41 -10 57
-10 29 0 29 0 29 59 l0 58 -52 7 c-77 9 -88 7 -138 -18z"/>
<path d="M3594 6475 c-4 -18 -2 -30 7 -36 25 -16 44 -5 44 26 0 23 -5 31 -22
33 -17 3 -24 -3 -29 -23z"/>
<path d="M4256 6493 c-12 -12 -6 -43 9 -43 8 0 15 9 15 19 0 21 -13 34 -24 24z"/>
<path d="M5635 6477 c-4 -9 -1 -25 6 -34 8 -9 18 -30 24 -47 14 -42 29 -39 33
6 2 26 9 39 23 43 10 4 19 10 19 15 0 16 -25 17 -43 1 -17 -14 -20 -14 -37 9
-17 22 -19 23 -25 7z"/>
<path d="M3715 6440 c-8 -13 4 -32 16 -25 12 8 12 35 0 35 -6 0 -13 -4 -16
-10z"/>
<path d="M4100 6435 c-13 -15 -7 -45 8 -45 16 0 34 29 28 45 -7 19 -20 19 -36
0z"/>
<path d="M5754 6396 c-3 -15 -15 -27 -30 -30 -13 -4 -24 -13 -24 -21 0 -20 46
-20 54 0 3 8 12 15 21 15 16 0 19 17 9 44 -9 23 -23 19 -30 -8z"/>
<path d="M4245 6390 c-4 -6 -3 -16 3 -22 13 -13 23 4 13 21 -7 10 -10 10 -16
1z"/>
<path d="M3430 6345 c0 -11 7 -15 23 -13 12 2 22 8 22 13 0 6 -10 11 -22 13
-16 2 -23 -2 -23 -13z"/>
<path d="M477 6213 c-10 -9 -8 -33 2 -33 5 0 11 9 14 20 5 20 -3 26 -16 13z"/>
<path d="M6245 6196 c-20 -15 -20 -15 2 -37 22 -22 23 -22 43 -4 21 19 27 45
11 45 -5 0 -15 2 -23 5 -7 3 -22 -1 -33 -9z"/>
<path d="M6138 6159 c-24 -13 -23 -44 2 -69 16 -16 20 -33 20 -83 0 -49 4 -68
18 -80 34 -31 47 -21 48 33 1 28 3 62 4 76 2 16 -7 36 -26 55 -15 16 -33 40
-39 54 -8 19 -13 22 -27 14z"/>
<path d="M383 6083 c-18 -7 -16 -23 2 -23 8 0 15 7 15 15 0 8 -1 15 -2 14 -2
0 -9 -3 -15 -6z"/>
<path d="M3921 6076 c-16 -19 -6 -66 13 -66 20 0 48 36 44 57 -4 23 -41 29
-57 9z"/>
<path d="M6295 6028 c-8 -28 -15 -61 -15 -73 0 -12 -9 -30 -20 -40 -15 -14
-19 -26 -15 -46 4 -19 -2 -42 -19 -76 -14 -26 -26 -55 -26 -65 0 -9 -6 -23
-13 -30 -7 -7 -23 -28 -36 -45 -12 -18 -31 -33 -40 -33 -16 0 -20 -13 -26 -97
-4 -54 -12 -104 -18 -111 -6 -7 -14 -32 -18 -55 -4 -23 -12 -58 -19 -77 -7
-19 -18 -51 -25 -70 -7 -19 -18 -51 -25 -70 -6 -19 -16 -51 -20 -70 -4 -19
-18 -60 -30 -90 -46 -118 -45 -108 -14 -149 77 -101 120 -148 156 -168 48 -27
52 -28 72 -7 23 22 20 34 -7 34 -29 0 -57 29 -57 58 0 65 53 102 66 45 12 -55
14 -60 25 -41 11 20 2 65 -15 76 -7 4 -19 21 -27 37 -14 28 -13 32 13 70 15
22 27 52 28 66 0 15 14 53 30 84 17 31 30 65 30 75 0 11 4 21 9 24 5 3 14 27
20 52 7 26 21 64 31 85 11 21 20 51 20 67 0 19 11 40 30 60 21 23 30 42 30 66
0 20 15 63 35 102 19 37 35 76 35 87 0 11 6 28 13 36 29 34 77 184 77 238 0
41 -26 96 -43 90 -7 -2 -13 -18 -15 -35 -4 -36 -18 -41 -38 -14 -12 15 -14 14
-24 -15 -13 -37 -30 -44 -30 -12 0 20 -48 89 -62 89 -4 0 -14 -23 -23 -52z
m141 -109 c10 -17 -13 -36 -27 -22 -12 12 -4 33 11 33 5 0 12 -5 16 -11z m-34
-110 c-4 -34 -20 -92 -31 -108 -8 -12 -12 -12 -25 -2 -8 7 -20 10 -26 6 -14
-9 6 -45 27 -45 11 0 14 -6 8 -22 -4 -13 -9 -38 -12 -56 -4 -26 -9 -33 -23
-29 -16 4 -18 0 -13 -28 5 -28 -1 -39 -37 -79 -24 -26 -39 -50 -35 -57 9 -13
-13 -87 -31 -109 -7 -8 -16 -27 -19 -43 -4 -15 -13 -31 -19 -35 -6 -4 -12 -25
-11 -47 0 -36 -3 -40 -27 -43 -32 -4 -35 -10 -12 -27 21 -15 12 -65 -11 -65
-17 0 -19 -18 -6 -39 18 -29 -43 -116 -73 -105 -17 7 -30 74 -20 106 3 12 13
28 20 36 8 8 14 35 14 64 0 46 20 126 41 170 5 10 9 28 9 41 0 12 6 31 14 42
7 11 16 36 19 55 17 105 32 149 68 202 21 32 39 64 39 72 0 8 11 23 25 33 17
12 28 32 33 63 6 36 12 46 30 48 13 2 30 -2 38 -8 11 -10 14 -9 14 7 0 11 3
23 7 27 13 13 28 -1 25 -25z m-378 -989 l7 -25 -20 24 c-12 12 -18 28 -15 33
8 13 20 -1 28 -32z"/>
<path d="M331 6032 c-14 -26 -14 -42 -1 -42 11 0 25 48 17 56 -3 3 -10 -3 -16
-14z"/>
<path d="M2505 6042 c-38 -1 -74 -7 -80 -12 -6 -5 -33 -12 -60 -15 -60 -8
-102 -41 -134 -105 -47 -93 -51 -102 -51 -121 0 -41 44 -18 71 37 15 32 31 49
58 60 20 8 48 27 63 41 21 20 30 23 41 15 8 -7 46 -10 103 -8 89 3 134 -5 134
-24 0 -5 -11 -10 -24 -10 -32 0 -56 -10 -56 -22 0 -6 15 -8 38 -4 20 3 57 8
82 12 25 3 55 10 66 16 15 7 28 7 43 -1 12 -7 26 -9 31 -6 5 3 44 -1 87 -10
43 -9 88 -13 100 -10 16 4 23 1 23 -9 0 -9 35 -24 98 -44 217 -67 209 -66 244
-52 51 20 54 28 17 43 -32 13 -33 14 -11 21 34 11 27 23 -30 49 -112 52 -404
129 -478 127 -53 -1 -236 19 -290 32 -8 2 -46 2 -85 0z m440 -132 c-3 -5 -13
-10 -21 -10 -8 0 -14 5 -14 10 0 6 9 10 21 10 11 0 17 -4 14 -10z m209 -16
c20 -8 11 -24 -15 -24 -10 0 -19 7 -19 15 0 16 9 19 34 9z"/>
<path d="M5255 5996 c-41 -8 -68 -9 -87 -2 -21 8 -31 6 -45 -5 -15 -12 -43
-14 -163 -8 -118 5 -149 3 -169 -9 -13 -8 -61 -17 -106 -21 -45 -3 -89 -11
-96 -17 -8 -6 -48 -14 -89 -18 -51 -4 -79 -11 -87 -22 -8 -11 -20 -14 -42 -9
-25 5 -32 2 -46 -19 -9 -14 -26 -26 -38 -28 -13 -2 -26 -16 -34 -37 l-14 -34
47 7 c26 3 58 13 71 21 16 11 35 14 57 10 18 -4 62 0 97 9 35 8 83 18 107 21
23 4 49 13 56 21 8 8 22 14 31 14 8 0 18 7 21 15 7 18 40 20 50 3 4 -6 -1 -17
-11 -25 -11 -7 -13 -13 -6 -13 23 0 51 21 51 38 0 24 19 42 36 35 11 -4 13
-15 8 -39 -6 -33 -5 -34 25 -34 33 0 42 14 15 24 -8 3 -12 11 -9 16 5 8 11 7
21 -1 22 -18 161 -21 198 -5 42 19 190 56 223 56 27 0 132 -66 191 -120 41
-37 52 -38 52 -4 0 31 -92 132 -129 141 -14 3 -39 17 -54 30 -31 25 -43 26
-132 9z"/>
<path d="M5984 5964 c-5 -19 -2 -29 10 -36 13 -7 14 -13 6 -29 -18 -32 -1 -41
31 -17 24 18 29 27 24 48 -8 30 -33 60 -51 60 -8 0 -17 -12 -20 -26z"/>
<path d="M295 5967 c-4 -10 -5 -21 -1 -24 10 -10 18 4 13 24 -4 17 -4 17 -12
0z"/>
<path d="M1287 5904 c-4 -4 -7 -18 -7 -31 0 -27 25 -31 34 -6 7 18 -16 48 -27
37z"/>
<path d="M3643 5878 c2 -7 10 -13 17 -13 7 0 15 6 18 13 2 7 -5 12 -18 12 -13
0 -20 -5 -17 -12z"/>
<path d="M4205 5860 c-8 -12 20 -24 35 -15 6 3 8 11 5 16 -8 12 -32 12 -40 -1z"/>
<path d="M1204 5838 c3 -13 6 -31 6 -40 0 -18 25 -25 34 -9 9 14 -17 71 -32
71 -10 0 -12 -7 -8 -22z"/>
<path d="M1280 5782 c0 -24 -19 -42 -45 -42 -33 0 -80 -27 -94 -54 -8 -13 -22
-27 -33 -29 -13 -4 -18 -12 -16 -24 5 -26 32 -22 36 5 4 30 47 31 55 1 4 -13
12 -19 24 -17 15 3 17 11 15 51 -4 47 4 57 26 35 9 -9 15 -9 24 0 15 15 38 15
38 0 0 -7 -12 -24 -26 -39 -42 -44 -16 -63 44 -33 39 19 41 43 7 80 -15 16
-25 39 -25 55 0 19 -5 29 -15 29 -8 0 -15 -8 -15 -18z"/>
<path d="M6534 5746 c-8 -33 -2 -69 14 -74 8 -2 12 10 12 42 0 50 -16 70 -26
32z"/>
<path d="M2705 5754 c-77 -11 -225 -59 -225 -75 0 -3 -13 -12 -29 -19 -38 -15
-71 -51 -53 -57 26 -10 11 -24 -18 -18 -19 4 -36 2 -45 -5 -22 -19 -18 -28 16
-35 17 -4 52 -16 77 -27 34 -15 58 -19 96 -15 37 4 67 0 112 -15 57 -20 102
-19 89 2 -3 5 -21 12 -40 16 -46 8 -51 18 -19 43 39 31 62 26 109 -24 54 -57
74 -64 160 -58 66 5 71 7 85 36 8 17 27 39 41 50 27 19 27 19 82 -7 31 -14 65
-26 76 -26 29 0 51 -11 51 -25 0 -18 -31 -24 -99 -18 -71 7 -163 -5 -140 -17
16 -9 110 -14 242 -11 91 2 107 12 70 42 -29 23 -80 49 -97 49 -9 0 -25 9 -36
20 -11 11 -28 20 -37 20 -10 0 -27 7 -37 15 -21 16 -72 19 -125 9 -35 -7 -40
-20 -11 -29 11 -3 20 -13 20 -21 0 -20 -50 -18 -79 3 -19 13 -28 14 -42 4 -17
-10 -19 -8 -19 25 l0 37 -109 -7 c-66 -4 -131 -15 -165 -26 -31 -11 -68 -20
-83 -20 -34 0 -73 10 -73 19 0 13 69 52 131 75 133 50 174 59 241 57 80 -3 98
14 25 23 -100 13 -112 14 -142 10z"/>
<path d="M2945 5730 c3 -5 21 -10 40 -10 18 0 46 -6 62 -14 15 -8 55 -22 88
-31 90 -25 115 -36 126 -56 5 -11 19 -19 30 -19 12 0 32 -9 46 -20 14 -11 35
-20 47 -20 23 -1 66 -59 66 -90 0 -11 -10 -21 -22 -25 -13 -4 -52 -20 -87 -37
-40 -18 -73 -27 -87 -24 -13 4 -35 -1 -52 -11 -25 -14 -38 -16 -70 -7 -44 12
-137 2 -213 -21 -49 -16 -63 -14 -276 26 -166 31 -221 22 -129 -22 40 -18 91
-30 196 -45 91 -13 98 -15 103 -34 7 -28 47 -27 47 0 0 30 28 36 51 12 16 -18
27 -21 67 -16 26 4 79 17 118 30 39 13 83 24 99 24 41 0 158 22 169 32 6 4 18
8 27 8 45 0 109 88 109 151 0 15 5 31 10 34 36 22 -33 92 -106 107 -23 5 -48
16 -55 24 -15 18 -29 18 -29 -1 0 -8 5 -15 10 -15 6 0 10 -4 10 -10 0 -16 -37
-12 -44 5 -3 8 -12 15 -21 15 -8 0 -15 7 -15 15 0 13 -7 15 -35 9 -26 -4 -41
-2 -53 9 -26 23 -240 49 -227 27z"/>
<path d="M3882 5708 c7 -19 38 -22 38 -4 0 10 -9 16 -21 16 -12 0 -19 -5 -17
-12z"/>
<path d="M4790 5711 c-24 -7 -24 -8 -5 -18 11 -6 56 -13 100 -16 44 -3 100
-13 124 -22 24 -8 70 -15 103 -15 38 0 77 -8 108 -21 32 -14 54 -18 64 -12 14
8 12 12 -13 31 -32 23 -60 31 -218 62 -101 20 -215 25 -263 11z"/>
<path d="M4605 5698 c-16 -5 -46 -14 -65 -20 -60 -17 -112 -56 -108 -81 4 -32
38 -24 90 24 24 21 53 39 64 39 45 0 85 13 95 31 8 17 6 19 -18 18 -15 -1 -41
-6 -58 -11z"/>
<path d="M930 5625 c0 -22 4 -26 23 -23 14 2 22 10 22 23 0 13 -8 21 -22 23
-19 3 -23 -1 -23 -23z"/>
<path d="M4253 5631 c-7 -11 -28 -25 -46 -32 -32 -11 -35 -16 -40 -63 -3 -28
-9 -66 -13 -84 -6 -32 -6 -32 62 -62 38 -17 82 -37 97 -45 31 -16 107 -21 107
-6 0 14 -22 26 -75 40 -27 6 -52 16 -55 20 -3 4 -14 12 -24 18 -20 11 -46 79
-46 121 0 18 5 22 34 22 25 0 35 -5 39 -20 3 -12 14 -20 26 -20 27 0 27 26 1
33 -30 8 -24 31 10 44 20 8 30 18 30 32 0 18 -6 21 -48 21 -36 0 -50 -5 -59
-19z"/>
<path d="M6487 5644 c-12 -13 -8 -23 27 -62 22 -24 36 -50 38 -72 3 -38 21
-44 26 -9 4 22 -3 40 -39 109 -17 34 -38 48 -52 34z"/>
<path d="M2926 5621 c-7 -11 22 -23 35 -15 5 3 7 10 4 15 -8 12 -32 12 -39 0z"/>
<path d="M4821 5621 c-12 -8 -8 -11 15 -17 16 -4 38 -13 49 -20 30 -19 90 -27
113 -15 29 15 92 3 92 -19 0 -23 -17 -36 -55 -43 -16 -3 -40 -8 -52 -12 -20
-6 -23 -4 -23 19 0 29 -6 31 -45 16 -21 -8 -37 -6 -71 9 -25 11 -52 17 -61 14
-12 -5 -15 -2 -11 8 21 57 21 62 -4 56 -13 -4 -51 -9 -83 -13 -33 -3 -76 -10
-95 -16 -55 -16 -140 -57 -140 -67 0 -5 -20 -14 -44 -20 -24 -6 -49 -17 -56
-26 -10 -12 -8 -16 13 -26 38 -17 77 -4 83 29 5 25 12 29 62 39 59 11 95 25
123 45 14 10 23 5 52 -26 20 -21 37 -47 39 -59 3 -19 9 -22 48 -22 25 0 50 -3
57 -8 7 -4 16 0 21 9 8 14 15 16 38 7 16 -6 49 -10 74 -9 25 2 62 4 82 4 23 1
48 11 66 27 33 28 77 32 106 10 14 -10 25 -11 45 -3 41 16 92 11 169 -16 79
-27 86 -23 57 34 -12 24 -22 30 -48 30 -17 0 -41 7 -51 15 -14 11 -47 15 -115
15 -66 0 -105 5 -125 15 -15 8 -80 22 -143 30 -132 17 -162 18 -182 6z"/>
<path d="M6445 5568 c-4 -17 -14 -38 -22 -46 -9 -9 -13 -30 -11 -56 2 -32 7
-42 23 -45 11 -2 24 -9 28 -17 4 -8 15 -14 22 -14 9 0 15 -10 15 -25 0 -16 -6
-25 -15 -25 -8 0 -15 9 -15 19 0 26 -17 36 -35 21 -21 -17 -19 -38 5 -45 25
-8 25 -18 1 -69 -10 -23 -22 -58 -25 -78 -7 -37 -6 -38 23 -38 21 0 32 -6 36
-21 5 -15 10 -18 18 -10 7 7 7 18 -1 36 -21 46 -15 89 18 120 28 27 30 34 26
83 -4 52 -5 55 -44 72 -47 21 -66 68 -38 99 18 19 21 57 7 65 -5 4 -13 -8 -16
-26z"/>
<path d="M870 5565 c0 -8 2 -15 4 -15 2 0 11 -3 20 -6 10 -4 16 -1 16 9 0 8
-7 18 -16 21 -22 9 -24 8 -24 -9z"/>
<path d="M4365 5560 c-8 -12 20 -24 35 -15 5 3 10 10 10 16 0 12 -37 12 -45
-1z"/>
<path d="M1233 5513 c-7 -2 -13 -11 -13 -20 0 -21 44 -13 48 10 3 17 -10 21
-35 10z"/>
<path d="M1132 5498 c6 -18 28 -21 28 -4 0 9 -7 16 -16 16 -9 0 -14 -5 -12
-12z"/>
<path d="M930 5465 c-17 -20 -5 -45 20 -45 11 0 23 7 26 15 6 15 -11 45 -26
45 -4 0 -13 -7 -20 -15z"/>
<path d="M4533 5473 c-60 -6 -53 -20 13 -29 69 -8 151 4 133 20 -8 7 -104 13
-146 9z"/>
<path d="M2735 5460 c3 -5 15 -10 26 -10 10 0 19 5 19 10 0 6 -12 10 -26 10
-14 0 -23 -4 -19 -10z"/>
<path d="M1157 5429 c-22 -24 -19 -62 5 -67 22 -4 41 33 34 64 -8 29 -15 29
-39 3z"/>
<path d="M4457 5386 c19 -27 24 -28 63 -16 l25 7 -25 10 c-14 6 -38 13 -53 17
l-29 7 19 -25z"/>
<path d="M4577 5373 c-4 -3 -7 -18 -7 -33 0 -21 7 -28 38 -39 20 -7 47 -17 60
-24 18 -8 26 -8 37 4 24 24 -2 62 -48 70 -21 3 -43 11 -50 18 -13 13 -21 14
-30 4z"/>
<path d="M3932 5348 c-17 -17 -15 -48 3 -55 20 -7 21 -5 30 35 7 34 -9 44 -33
20z"/>
<path d="M5123 5353 c-23 -9 -14 -23 15 -23 40 0 60 16 30 23 -26 7 -28 7 -45
0z"/>
<path d="M1105 5330 c-9 -14 4 -52 16 -45 12 8 12 42 0 50 -5 3 -12 1 -16 -5z"/>
<path d="M4751 5301 c-19 -14 -20 -19 -8 -35 9 -13 29 -19 68 -22 30 -2 87 -5
128 -8 41 -2 85 0 99 5 23 9 24 11 8 28 -9 9 -16 22 -16 28 0 6 -37 8 -101 6
-56 -2 -113 0 -128 5 -21 8 -33 6 -50 -7z"/>
<path d="M6730 5313 c25 -2 52 -10 60 -18 18 -15 52 -22 140 -30 36 -2 81 -9
100 -15 19 -5 51 -10 71 -10 19 0 44 -7 55 -15 10 -8 31 -15 47 -15 23 0 27 4
27 30 0 24 -4 30 -22 31 -101 5 -138 9 -168 18 -19 6 -73 13 -120 15 -161 10
-235 13 -190 9z"/>
<path d="M1001 5266 c-9 -11 -5 -16 18 -26 39 -16 58 -5 35 21 -20 22 -37 24
-53 5z"/>
<path d="M5077 5233 c17 -49 56 -61 51 -15 -2 21 -9 28 -30 30 -23 3 -27 0
-21 -15z"/>
<path d="M3584 5206 c-7 -20 2 -46 16 -46 13 0 13 47 0 55 -6 3 -13 -1 -16 -9z"/>
<path d="M3491 5115 c-21 -20 -42 -45 -45 -58 -3 -12 -19 -30 -36 -39 -31 -18
-38 -47 -13 -55 11 -4 36 19 129 118 24 26 33 69 14 69 -5 0 -27 -16 -49 -35z"/>
<path d="M3754 5124 c3 -9 6 -24 6 -35 0 -28 29 -23 36 5 7 31 -1 46 -28 46
-14 0 -18 -5 -14 -16z"/>
<path d="M5324 5128 c-10 -16 51 -68 79 -68 41 0 37 11 -13 46 -56 38 -56 38
-66 22z"/>
<path d="M6380 5105 c0 -23 6 -38 15 -42 23 -8 25 -2 12 40 -15 47 -27 48 -27
2z"/>
<path d="M3255 5101 c-16 -9 -48 -28 -70 -42 -71 -44 -80 -49 -103 -59 -18 -8
-21 -14 -14 -26 16 -29 -8 -70 -55 -93 -24 -12 -46 -28 -50 -36 -3 -9 -23 -25
-44 -36 -22 -11 -45 -28 -51 -39 -7 -11 -21 -20 -31 -20 -20 0 -42 -42 -34
-64 10 -24 36 -19 49 9 6 14 17 25 23 25 7 0 18 7 25 15 7 9 21 13 31 10 14
-5 22 0 28 17 5 13 36 41 70 62 33 22 63 48 67 58 7 24 22 23 44 -4 15 -19 20
-20 34 -9 9 7 16 28 16 45 0 47 34 95 84 117 33 14 45 26 49 46 3 16 3 31 0
35 -7 12 -35 7 -68 -11z"/>
<path d="M4126 5091 c-7 -10 18 -34 27 -25 7 8 -3 34 -13 34 -5 0 -11 -4 -14
-9z"/>
<path d="M790 5081 c0 -12 29 -23 41 -15 5 3 7 10 4 15 -8 12 -45 12 -45 0z"/>
<path d="M4314 5070 c-11 -4 -47 -11 -80 -15 -65 -8 -84 -18 -84 -46 0 -12 16
-25 46 -39 55 -24 71 -25 54 -5 -19 23 -2 35 52 35 86 0 189 -72 133 -94 -15
-6 -22 -56 -7 -56 5 0 23 20 42 45 19 25 35 45 36 45 12 0 135 -81 200 -132
225 -175 228 -178 236 -248 3 -20 8 -24 28 -22 40 4 52 24 44 67 -7 38 -40 77
-120 140 -21 17 -65 55 -98 86 -59 54 -149 119 -165 119 -4 0 -17 13 -29 30
-30 41 -67 58 -174 80 -50 11 -92 20 -92 19 -1 0 -10 -4 -22 -9z"/>
<path d="M5190 5067 c0 -22 36 -49 61 -45 34 5 34 25 0 42 -37 20 -61 20 -61
3z"/>
<path d="M3832 5047 c-6 -6 -13 -24 -17 -40 -7 -26 -5 -27 29 -27 40 0 43 7
21 50 -18 34 -19 35 -33 17z"/>
<path d="M290 5011 c0 -22 5 -43 10 -46 13 -8 13 -48 -1 -62 -8 -8 -6 -15 6
-24 9 -8 25 -22 36 -32 12 -10 27 -16 35 -13 21 8 17 59 -6 79 -11 9 -20 28
-20 41 0 13 -6 26 -14 29 -8 3 -16 18 -18 33 -5 45 -28 42 -28 -5z"/>
<path d="M6250 5015 c-7 -8 -11 -17 -8 -20 8 -8 49 8 45 18 -6 18 -23 19 -37
2z"/>
<path d="M6350 4996 c0 -17 14 -29 23 -20 8 8 -3 34 -14 34 -5 0 -9 -6 -9 -14z"/>
<path d="M6206 4935 c-3 -9 0 -15 9 -15 8 0 15 7 15 15 0 8 -4 15 -9 15 -5 0
-11 -7 -15 -15z"/>
<path d="M3255 4835 c-5 -2 -23 -6 -38 -9 -32 -7 -27 -26 6 -25 28 1 188 -48
201 -61 6 -6 30 -10 55 -10 24 0 58 -4 75 -9 17 -6 58 -14 91 -20 33 -6 83
-16 110 -21 63 -14 164 -3 172 17 10 25 -11 35 -43 18 -44 -23 -81 -19 -100
10 -9 14 -25 25 -35 25 -36 0 -115 22 -160 46 -43 22 -47 22 -62 6 -15 -14
-20 -15 -38 -4 -13 9 -35 11 -58 7 -29 -5 -43 -1 -63 14 -24 19 -81 27 -113
16z"/>
<path d="M4255 4819 c-33 -5 -79 -6 -102 -3 -29 3 -50 0 -67 -11 -14 -9 -34
-14 -44 -11 -12 4 -28 -2 -45 -18 -26 -24 -36 -56 -19 -56 21 0 157 52 172 65
12 11 24 12 47 6 34 -10 139 -1 162 14 12 7 11 10 -5 16 -22 9 -21 9 -99 -2z"/>
<path d="M3925 4800 c3 -5 15 -10 26 -10 10 0 19 5 19 10 0 6 -12 10 -26 10
-14 0 -23 -4 -19 -10z"/>
<path d="M2003 4734 c-9 -19 -8 -24 2 -24 14 0 28 37 16 44 -3 2 -11 -7 -18
-20z"/>
<path d="M6288 4720 c-45 -24 -56 -40 -29 -40 12 0 21 4 21 9 0 5 14 14 31 20
17 6 28 15 24 21 -7 12 -2 13 -47 -10z"/>
<path d="M2740 4669 c-9 -21 -10 -39 -4 -57 10 -28 76 -71 112 -72 12 0 30 -4
40 -9 68 -35 90 -40 102 -25 16 18 44 18 111 -3 30 -9 73 -16 96 -14 26 2 51
-3 65 -13 12 -9 38 -16 56 -16 19 0 57 -6 85 -14 30 -8 156 -19 293 -26 213
-11 257 -10 370 4 190 25 239 33 343 55 52 12 103 21 113 21 26 0 23 -32 -7
-60 -14 -13 -25 -34 -25 -46 0 -29 -35 -54 -75 -54 -19 0 -42 -11 -64 -30 -26
-23 -43 -30 -77 -30 -23 0 -55 -6 -71 -14 -15 -8 -67 -26 -115 -41 -76 -23
-111 -27 -263 -31 -158 -3 -180 -2 -232 17 -75 27 -103 39 -132 62 -14 10 -34
17 -46 15 -24 -3 -59 20 -68 45 -6 16 -24 22 -54 18 -19 -3 -61 28 -68 49 -4
13 -19 19 -53 22 -26 3 -50 3 -54 1 -15 -8 36 -63 58 -63 13 0 25 -8 29 -19 7
-21 42 -34 51 -19 4 7 10 4 16 -5 5 -9 25 -24 46 -33 89 -39 101 -44 113 -44
7 0 20 -7 28 -14 24 -22 157 -74 223 -88 43 -9 69 -9 110 0 29 6 97 14 151 17
53 4 109 13 125 21 15 7 42 14 61 14 18 0 65 11 103 25 78 28 118 32 118 11 0
-22 -50 -76 -70 -76 -10 0 -22 -9 -25 -20 -10 -32 -42 -44 -77 -29 -32 13 -48
3 -48 -32 0 -16 -23 -30 -100 -58 -50 -19 -207 -27 -229 -13 -8 6 -24 5 -41
-1 -22 -8 -36 -8 -57 2 -15 8 -46 15 -68 17 -56 5 -116 24 -141 46 -11 10 -24
18 -28 18 -14 0 -66 44 -66 56 0 6 -13 17 -30 24 -19 8 -30 20 -30 32 0 15 -5
18 -20 13 -11 -4 -20 -2 -20 4 0 6 5 11 10 11 6 0 10 5 10 10 0 6 -7 10 -15
10 -8 0 -15 -4 -15 -10 0 -16 -30 -12 -37 5 -3 9 2 22 12 29 14 10 15 15 5 21
-8 5 -16 2 -22 -9 -12 -22 -26 -20 -53 7 -13 12 -45 38 -71 57 -27 19 -52 38
-55 43 -3 4 -12 1 -19 -8 -11 -14 -7 -21 30 -53 23 -20 70 -64 104 -98 151
-149 322 -259 451 -290 80 -19 230 -18 340 2 119 22 328 121 435 207 98 79
170 148 170 164 0 7 5 13 10 13 6 0 10 5 10 10 0 6 -7 6 -19 -1 -21 -14 -56
-5 -46 12 4 6 13 8 20 5 7 -2 17 0 23 6 8 8 16 7 27 -2 21 -17 32 -4 17 20
-11 18 -9 20 10 20 12 0 36 15 54 35 17 19 41 35 51 35 44 0 65 59 27 74 -40
15 -242 26 -304 16 -36 -5 -105 -16 -155 -25 -49 -8 -124 -14 -165 -15 -55 0
-86 -5 -115 -20 -45 -23 -143 -27 -178 -8 -12 7 -64 13 -114 14 -98 3 -137 10
-128 24 3 5 -23 11 -57 14 -255 23 -477 39 -551 40 -68 1 -91 5 -100 17 -19
25 -57 41 -83 35 -25 -7 -29 2 -25 52 3 35 -34 29 -49 -9z m1930 -186 c7 -6
-81 -83 -96 -83 -20 0 -25 16 -9 30 8 7 15 19 15 26 0 8 9 23 20 34 17 17 24
19 43 9 12 -6 24 -14 27 -16z m-204 -208 c14 -13 13 -15 -4 -15 -12 0 -24 -11
-32 -30 -14 -34 -30 -40 -30 -10 0 10 -8 23 -17 29 -17 9 -17 10 2 16 11 4 27
10 35 15 22 13 30 12 46 -5z"/>
<path d="M866 4664 c-9 -8 -16 -27 -16 -41 0 -14 -11 -38 -25 -55 -14 -16 -25
-35 -25 -42 0 -7 -12 -24 -27 -38 -16 -14 -44 -44 -63 -67 -19 -23 -53 -61
-74 -84 -208 -222 -352 -401 -431 -535 -53 -91 -75 -125 -112 -174 -24 -31
-43 -59 -43 -62 0 -4 -11 -24 -25 -46 -14 -22 -25 -54 -25 -72 l1 -33 22 30
c12 17 59 67 104 113 53 53 86 94 91 115 5 19 17 36 31 42 13 6 25 22 28 38 3
16 14 34 24 40 12 7 19 23 19 42 0 23 10 39 44 69 24 21 47 49 50 62 4 15 14
24 26 24 11 0 20 6 20 14 0 14 26 45 124 148 32 35 65 77 73 95 7 18 20 33 28
33 8 0 22 11 31 25 9 14 21 25 28 25 6 0 23 21 38 45 15 25 38 49 52 55 15 5
28 22 36 44 13 40 39 48 47 15 4 -12 11 -18 20 -15 8 3 16 6 18 6 2 0 17 23
35 50 18 28 36 50 41 50 33 0 95 -103 72 -119 -5 -3 -22 -27 -37 -53 -15 -27
-34 -48 -42 -48 -18 0 -34 -32 -34 -70 0 -18 -4 -29 -10 -25 -5 3 -15 -7 -22
-22 -11 -25 -41 -67 -83 -115 -8 -10 -12 -23 -10 -30 3 -7 -5 -18 -17 -23 -13
-6 -24 -20 -26 -33 -2 -13 -10 -26 -18 -29 -8 -3 -14 -11 -14 -19 0 -19 46
-18 54 1 3 9 18 15 39 15 27 0 37 6 48 28 8 15 32 52 55 82 22 30 51 75 64
100 69 134 110 210 138 256 18 28 32 60 32 70 0 10 7 32 15 48 19 37 13 43
-28 28 -19 -7 -52 -12 -75 -12 -23 0 -50 -5 -60 -11 -14 -9 -30 -5 -78 19 -33
17 -66 37 -73 46 -17 20 -35 20 -55 0z"/>
<path d="M1930 4673 c-19 -3 -42 -10 -50 -17 -33 -29 -107 -37 -214 -25 -82
10 -114 10 -157 -1 -62 -14 -125 -16 -186 -5 -48 8 -50 5 -27 -31 13 -19 14
-30 6 -47 -6 -12 -16 -43 -23 -69 -9 -31 -19 -48 -32 -52 -15 -4 -18 -10 -13
-31 5 -20 0 -33 -29 -62 -19 -20 -35 -42 -35 -49 0 -6 -13 -42 -30 -79 -31
-70 -37 -95 -20 -95 6 0 10 8 10 19 0 10 11 30 25 45 14 15 25 34 25 42 0 8
18 34 40 56 22 23 40 46 40 50 0 4 9 8 20 8 11 0 20 6 20 14 0 7 25 44 55 81
30 36 55 75 55 84 0 10 9 30 21 45 29 36 105 37 146 2 26 -23 27 -25 9 -32
-13 -5 -23 -2 -31 9 -16 23 -31 21 -49 -5 -15 -21 -14 -23 22 -44 37 -23 85
-30 117 -18 9 4 25 26 36 50 16 38 22 44 48 44 16 0 33 -5 36 -10 4 -7 24 -8
51 -4 47 7 53 0 34 -37 -8 -14 -21 -19 -51 -19 -34 0 -42 -4 -59 -33 -11 -18
-36 -41 -55 -50 -20 -9 -38 -25 -41 -34 -3 -10 -10 -26 -15 -35 -7 -14 -5 -18
10 -18 26 0 89 38 101 60 24 45 100 11 100 -45 0 -15 9 -43 21 -61 15 -25 19
-42 14 -64 -5 -23 -3 -30 9 -30 9 0 16 -2 16 -5 0 -14 -47 -75 -57 -75 -7 0
-13 -4 -13 -10 0 -13 17 -13 25 0 9 15 25 2 25 -21 0 -23 4 -24 35 -3 29 19
32 46 8 65 -15 13 -13 14 12 19 15 3 33 14 39 25 22 41 48 46 63 13 l10 -23
12 23 c13 25 46 29 59 7 7 -13 15 -14 62 -3 44 10 55 17 64 40 13 34 22 35 30
6 6 -23 7 -22 34 10 27 32 64 42 78 21 3 -6 16 -8 28 -5 16 4 24 -1 31 -17 6
-12 17 -21 26 -19 28 4 41 -23 34 -72 -4 -26 -11 -49 -16 -52 -15 -9 -10 -37
11 -59 19 -20 19 -22 2 -45 -10 -15 -17 -45 -17 -75 -1 -27 -4 -60 -8 -71 -6
-17 -3 -23 14 -27 29 -8 13 -30 -17 -24 -23 4 -24 1 -24 -44 0 -46 15 -67 25
-34 16 51 14 49 35 30 29 -26 26 -55 -5 -55 -21 0 -25 -5 -25 -30 0 -16 -4
-30 -10 -30 -5 0 -10 -9 -10 -20 0 -11 5 -20 10 -20 6 0 10 9 10 20 0 32 18
23 38 -17 32 -63 35 -91 12 -98 -11 -4 -20 -15 -20 -27 0 -17 4 -19 25 -14 20
5 25 3 25 -12 0 -10 7 -27 15 -38 17 -23 19 -66 4 -81 -17 -17 -3 -46 18 -39
13 4 23 -3 36 -25 21 -38 22 -69 2 -69 -8 0 -15 -4 -15 -10 0 -10 13 -13 41
-11 20 2 51 -75 42 -107 -4 -18 -1 -24 16 -29 11 -3 21 -11 21 -18 0 -8 7 -21
16 -30 12 -11 14 -25 10 -50 -6 -28 -4 -35 9 -35 8 0 15 -7 15 -16 0 -10 6
-14 14 -11 8 3 20 -1 28 -10 35 -43 168 -113 214 -113 31 0 43 -7 71 -40 35
-40 73 -53 73 -25 0 24 42 17 65 -11 18 -23 23 -24 49 -14 34 13 56 7 56 -15
0 -8 3 -15 8 -16 4 0 43 -5 87 -10 44 -6 100 -12 125 -14 25 -3 62 -7 83 -11
31 -5 45 -2 68 15 15 11 37 21 48 21 11 0 23 5 27 11 7 12 -30 10 -118 -7 -34
-6 -38 -4 -38 14 0 23 18 32 69 32 40 0 81 23 81 45 0 11 16 13 70 12 48 -1
70 -6 70 -14 0 -8 -15 -13 -40 -13 -34 0 -40 -3 -40 -21 0 -18 4 -20 26 -15
15 4 32 2 40 -5 11 -9 20 -5 45 15 17 14 39 26 48 26 10 0 39 16 64 35 25 19
49 35 52 35 4 0 22 15 41 33 19 17 39 32 45 32 17 0 80 68 94 101 10 24 21 33
41 36 38 4 55 35 31 53 -18 13 -18 15 5 46 12 18 31 41 41 51 16 17 17 17 17
1 0 -36 -12 -61 -31 -66 -22 -6 -26 -27 -5 -27 8 0 23 14 33 30 9 17 21 30 25
30 4 0 24 18 45 41 21 22 48 51 61 65 13 13 32 24 43 24 14 0 26 13 39 43 16
35 24 42 47 42 23 0 28 4 28 25 0 19 6 25 22 25 24 0 83 68 83 95 0 9 18 33
40 53 38 34 54 77 29 77 -18 0 -79 -67 -79 -85 0 -34 -131 -151 -185 -165 -11
-3 -25 -16 -31 -28 -17 -34 -46 -62 -64 -62 -23 0 -62 -44 -55 -62 9 -24 -16
-34 -31 -13 -13 18 -14 18 -36 -1 -26 -23 -56 -55 -132 -145 -30 -37 -79 -84
-108 -105 -28 -21 -63 -49 -77 -63 -44 -41 -164 -91 -219 -91 -55 0 -135 -24
-171 -52 -13 -10 -30 -18 -38 -18 -7 0 -25 -7 -39 -16 -21 -14 -34 -15 -92 -6
-37 6 -103 16 -147 22 -44 7 -93 18 -110 25 -29 14 -111 43 -247 89 -37 13
-83 35 -102 49 -19 15 -39 27 -44 27 -23 0 -122 163 -122 201 0 17 -63 154
-108 234 -54 98 -91 240 -112 440 -11 101 -10 118 9 210 12 55 31 117 41 138
11 21 20 40 20 42 0 8 -262 265 -270 265 -4 0 -14 18 -23 40 -14 37 -18 40
-35 29 -11 -7 -25 -30 -32 -52 -13 -44 -113 -151 -156 -167 -14 -6 -58 -10
-98 -10 -66 0 -74 2 -100 29 -22 23 -28 40 -33 97 -4 57 -3 72 11 83 9 7 16
22 16 33 0 28 28 79 61 110 28 26 31 60 5 56 -6 0 -27 -3 -46 -5z m-270 -108
c0 -8 -7 -15 -15 -15 -9 0 -12 6 -9 15 4 8 10 15 15 15 5 0 9 -7 9 -15z m670
-185 c0 -6 11 -16 25 -22 17 -7 25 -19 25 -35 0 -21 -4 -24 -32 -21 -31 3 -33
6 -36 46 -2 25 1 42 7 42 6 0 11 -5 11 -10z m-32 -93 c2 -12 -3 -17 -17 -17
-15 0 -21 6 -21 21 0 25 33 22 38 -4z m892 -1557 c0 -5 -9 -10 -20 -10 -11 0
-20 5 -20 10 0 6 9 10 20 10 11 0 20 -4 20 -10z"/>
<path d="M4320 4668 c-19 -5 -49 -13 -66 -19 -17 -5 -75 -9 -130 -10 -54 0
-121 -4 -149 -9 -27 -4 -68 -11 -90 -15 -74 -12 -85 -15 -85 -26 0 -14 386 -3
475 13 33 6 83 10 112 9 28 -1 54 2 57 7 7 12 -57 62 -76 61 -7 -1 -29 -5 -48
-11z"/>
<path d="M2083 4650 c-32 -15 -43 -25 -48 -51 -4 -19 -18 -49 -30 -69 -26 -41
-41 -160 -22 -179 15 -15 55 -14 108 4 33 11 50 25 63 50 10 19 29 44 42 56
18 17 24 33 24 63 0 23 4 47 9 55 5 8 0 27 -17 52 -30 45 -60 50 -129 19z m37
-138 c0 -8 -37 -42 -45 -42 -10 0 -5 26 7 38 13 13 38 16 38 4z"/>
<path d="M2408 4618 c17 -8 26 -8 34 0 9 9 4 12 -22 11 -33 0 -34 -1 -12 -11z"/>
<path d="M3605 4610 c-19 -7 -18 -9 8 -19 29 -11 129 -3 106 9 -24 12 -93 19
-114 10z"/>
<path d="M5980 4569 c0 -5 4 -9 8 -9 4 0 33 -31 62 -70 56 -70 76 -79 43 -18
-36 65 -55 87 -84 97 -18 6 -29 6 -29 0z"/>
<path d="M4856 4546 c-34 -38 -76 -131 -76 -170 0 -25 -5 -36 -14 -36 -20 0
-31 -19 -18 -32 8 -8 18 -6 36 6 14 9 32 16 40 16 10 0 13 6 9 16 -3 8 4 28
16 44 11 16 21 38 21 49 0 11 5 23 10 26 19 12 41 66 35 85 -9 27 -31 25 -59
-4z"/>
<path d="M5125 4551 c-11 -19 12 -37 47 -35 51 2 101 15 91 24 -14 15 -130 24
-138 11z"/>
<path d="M2870 4472 c0 -22 26 -39 50 -32 17 6 19 8 7 9 -10 1 -20 8 -23 16
-6 16 -34 21 -34 7z"/>
<path d="M884 4409 c-9 -18 -32 -47 -50 -64 -33 -31 -45 -65 -23 -65 19 0 49
21 49 34 0 7 14 30 30 51 31 39 37 59 20 70 -5 3 -17 -9 -26 -26z"/>
<path d="M2970 4404 c0 -14 3 -14 15 -4 8 7 15 14 15 16 0 2 -7 4 -15 4 -8 0
-15 -7 -15 -16z"/>
<path d="M6217 4363 c-4 -3 -7 -24 -7 -45 0 -37 1 -38 38 -38 22 0 61 -7 88
-15 27 -8 65 -15 84 -15 19 0 51 -5 70 -11 19 -6 78 -15 130 -19 98 -9 192
-24 246 -41 33 -10 167 -26 292 -36 l72 -5 0 26 c0 24 -4 26 -39 26 -21 0 -92
10 -157 22 -66 11 -147 20 -181 19 -37 -1 -77 5 -99 14 -20 8 -63 15 -95 15
-32 0 -70 5 -86 11 -15 6 -57 15 -93 20 -102 15 -194 28 -206 28 -7 1 -15 12
-18 26 -6 24 -25 33 -39 18z"/>
<path d="M1488 4303 c-28 -7 -23 -43 5 -43 13 0 28 -5 35 -12 9 -9 12 -9 12 3
-1 23 -34 56 -52 52z"/>
<path d="M6024 4295 c-4 -8 -10 -15 -14 -15 -4 0 -23 -15 -41 -32 -19 -18 -54
-49 -79 -68 -110 -86 -165 -150 -129 -150 32 0 245 190 262 233 3 9 11 17 17
17 5 0 10 7 10 15 0 8 -5 15 -10 15 -6 0 -13 -7 -16 -15z"/>
<path d="M770 4252 c-28 -10 -80 -75 -80 -101 0 -18 40 -12 47 7 3 9 19 31 34
47 28 30 28 57 -1 47z"/>
<path d="M2682 4248 c3 -7 13 -15 22 -16 12 -3 17 1 14 10 -3 7 -13 15 -22 16
-12 3 -17 -1 -14 -10z"/>
<path d="M1437 4243 c-4 -3 -7 -16 -7 -29 0 -12 -6 -24 -12 -27 -7 -2 -10 -8
-5 -13 8 -8 36 25 49 58 7 18 -11 26 -25 11z"/>
<path d="M5211 4216 c-15 -18 -5 -56 13 -56 19 0 38 26 34 47 -4 23 -31 28
-47 9z"/>
<path d="M2756 4211 c-3 -5 1 -14 9 -21 8 -7 15 -18 15 -24 0 -7 6 -20 13 -30
17 -23 57 -13 57 14 0 38 -78 88 -94 61z"/>
<path d="M5305 4150 c-25 -12 -64 -19 -107 -19 -45 -1 -71 -6 -82 -16 -8 -8
-18 -15 -22 -15 -10 0 -105 -60 -131 -84 -13 -10 -23 -27 -23 -35 0 -9 -7 -29
-15 -45 -8 -15 -15 -37 -15 -48 0 -11 -11 -41 -24 -67 -55 -103 -86 -171 -86
-185 0 -9 -13 -22 -30 -31 -16 -9 -30 -20 -30 -25 0 -14 -34 -12 -48 2 -17 17
-28 0 -14 -22 7 -11 12 -33 12 -50 0 -39 9 -38 43 5 20 25 36 35 56 35 21 0
30 6 35 23 9 36 65 89 87 82 16 -5 19 -1 19 28 0 38 22 97 51 139 11 14 19 32
19 40 0 8 14 27 30 43 17 16 30 39 30 52 0 13 4 23 8 23 4 0 14 16 21 36 8 23
18 34 29 32 18 -3 35 -55 21 -64 -5 -3 -9 -29 -9 -57 0 -29 -6 -61 -14 -72 -7
-11 -16 -42 -20 -70 -4 -27 -18 -69 -32 -92 -13 -23 -24 -50 -24 -61 0 -11 -7
-25 -15 -32 -8 -7 -15 -21 -15 -32 0 -10 -7 -21 -15 -24 -9 -4 -34 -37 -56
-75 -23 -38 -45 -69 -50 -69 -5 0 -27 -25 -50 -57 -37 -49 -40 -58 -29 -76 11
-18 9 -23 -15 -43 -26 -20 -27 -26 -22 -68 4 -29 3 -46 -4 -46 -16 0 -89 -63
-89 -77 0 -19 8 -16 50 17 21 17 40 30 43 30 3 0 8 -11 11 -25 4 -14 10 -25
15 -25 15 0 31 60 31 112 0 40 4 51 19 55 14 4 20 18 25 63 4 38 15 70 31 92
13 18 34 51 46 73 12 22 27 44 34 50 7 5 16 23 20 40 3 16 15 35 26 43 10 7
19 21 19 31 0 10 9 30 20 44 11 14 20 31 20 39 0 17 36 131 49 155 5 10 20 52
32 93 28 90 25 86 44 70 8 -7 22 -9 31 -6 15 6 15 8 -1 26 -17 18 -16 20 11
44 l29 24 27 -20 c18 -12 28 -29 28 -44 0 -22 2 -23 20 -14 17 9 22 7 29 -11
5 -15 22 -27 46 -33 45 -13 55 -31 23 -42 l-23 -7 25 -9 c31 -12 130 9 137 29
5 14 53 19 53 6 -1 -14 -27 -43 -39 -43 -6 0 -11 -7 -11 -15 0 -21 20 -19 45
5 21 20 24 20 64 4 47 -19 45 -34 -4 -34 -25 0 -33 -4 -29 -14 8 -20 50 -34
123 -39 68 -6 84 -17 78 -54 -4 -23 16 -33 27 -14 3 5 20 14 36 20 26 9 33 7
47 -9 12 -14 20 -16 32 -8 12 7 27 6 54 -5 32 -14 37 -20 37 -49 0 -18 -14
-60 -30 -93 -17 -33 -30 -65 -30 -72 0 -23 25 -14 42 15 10 16 44 43 77 61 49
26 64 30 81 21 31 -17 24 -32 -36 -75 -31 -22 -60 -48 -65 -57 -5 -10 -15 -18
-23 -18 -7 0 -22 -11 -34 -25 -12 -14 -26 -25 -32 -25 -5 0 -10 -7 -10 -15 0
-8 9 -15 20 -15 36 0 23 -54 -15 -61 -14 -3 -19 -12 -20 -33 0 -16 -6 -31 -14
-34 -20 -7 -8 78 13 90 20 11 21 34 1 42 -8 3 -15 10 -15 16 0 5 7 10 15 10
16 0 19 9 9 35 -5 13 -11 9 -30 -17 -13 -17 -24 -39 -24 -49 0 -9 -7 -22 -15
-29 -8 -7 -15 -22 -15 -34 0 -12 -11 -37 -25 -56 -14 -19 -25 -40 -25 -46 0
-7 -7 -17 -16 -22 -19 -10 -24 -73 -7 -79 6 -2 19 12 28 32 20 40 31 50 40 35
3 -6 -1 -13 -9 -16 -17 -7 -22 -39 -7 -49 5 -3 12 4 16 15 3 11 11 20 17 20 7
0 8 16 4 45 -6 37 -4 45 8 45 9 0 16 -7 16 -15 0 -8 5 -15 10 -15 20 0 9 -43
-20 -80 -17 -21 -33 -52 -36 -69 -9 -42 -20 -39 -30 7 l-7 37 -9 -52 c-5 -29
-14 -53 -20 -53 -7 0 -8 -13 -5 -35 4 -25 0 -41 -14 -59 -19 -24 -19 -28 -5
-48 20 -28 20 -48 1 -48 -16 0 -38 -34 -28 -44 10 -10 9 -109 -1 -131 -16 -31
-16 -111 -1 -202 8 -44 11 -90 9 -100 -3 -11 2 -25 10 -32 9 -8 16 -24 16 -37
0 -29 33 -130 66 -202 13 -29 24 -65 24 -80 0 -15 6 -37 14 -48 11 -15 35 -85
39 -114 6 -43 49 -209 66 -253 6 -16 11 -45 11 -66 0 -22 6 -44 15 -51 8 -7
15 -24 15 -39 0 -15 7 -37 16 -49 10 -15 14 -32 9 -49 -8 -32 4 -113 17 -113
7 0 8 38 4 104 -4 58 -2 107 2 110 15 9 45 -31 36 -46 -12 -18 -5 -70 11 -88
8 -8 19 -38 26 -65 7 -28 19 -57 26 -66 7 -8 13 -29 13 -46 0 -18 6 -33 15
-36 19 -8 28 8 21 36 -5 23 8 56 17 41 2 -5 8 -23 11 -41 6 -24 3 -34 -9 -40
-11 -7 -16 -20 -13 -43 4 -48 28 -52 28 -5 0 21 4 34 10 30 12 -8 13 -62 1
-69 -17 -11 -19 -91 -4 -148 16 -60 13 -77 -28 -151 -11 -21 -3 -60 24 -109
18 -33 19 -48 14 -180 -10 -228 -18 -307 -33 -319 -16 -13 -19 -45 -4 -54 12
-7 37 42 58 114 13 45 16 98 14 271 -1 118 -3 242 -5 275 -2 54 0 60 19 63 20
3 21 -3 28 -110 14 -201 17 -422 7 -468 -5 -25 -12 -71 -15 -102 l-6 -58 34 0
34 0 7 182 c9 249 -5 506 -40 688 -15 80 -33 160 -41 178 -8 18 -14 41 -14 50
0 10 -7 27 -15 38 -8 10 -15 26 -15 35 0 10 -13 44 -30 77 -16 34 -30 65 -30
71 0 5 -20 54 -44 108 -70 153 -89 237 -84 359 4 84 9 110 31 151 30 58 175
205 270 273 19 14 45 39 56 56 12 17 34 37 48 45 27 14 46 29 88 69 12 11 26
20 32 20 7 0 17 9 23 20 6 11 19 20 28 20 10 0 23 5 30 12 15 15 16 54 2 63
-14 9 -120 -53 -120 -70 0 -14 -21 -25 -47 -25 -18 0 -93 -65 -264 -229 -99
-96 -130 -132 -135 -157 -7 -38 -37 -69 -58 -61 -20 8 -62 93 -72 143 -4 21
-16 59 -26 84 -32 74 -56 152 -73 234 -28 134 -8 542 30 622 8 18 15 39 15 48
0 22 21 68 43 93 18 20 18 23 3 29 -9 4 -16 17 -16 34 0 40 16 46 24 9 7 -38
25 -34 48 11 19 36 63 81 120 121 18 13 35 26 38 29 9 11 73 40 88 40 9 0 24
7 34 16 13 13 41 17 110 19 140 4 129 1 116 30 -10 22 -17 24 -64 23 -42 -1
-59 3 -76 19 -45 40 -103 73 -129 73 -15 0 -32 7 -40 16 -10 12 -23 14 -60 9
-43 -6 -49 -4 -64 19 -9 14 -39 41 -66 61 -27 19 -49 41 -49 48 0 25 -45 57
-80 57 -36 0 -114 25 -140 45 -8 6 -39 19 -69 29 -30 9 -69 28 -87 41 -18 14
-41 25 -52 25 -10 0 -45 13 -78 29 -32 16 -75 36 -94 44 -19 8 -60 33 -90 56
-30 22 -59 41 -65 40 -5 0 -28 -9 -50 -19z m126 -110 c27 -15 24 -30 -6 -30
-14 0 -25 2 -25 4 0 2 -3 11 -6 20 -7 18 8 21 37 6z m969 -489 c0 -12 -39 -25
-48 -16 -7 7 17 25 36 25 6 0 12 -4 12 -9z m-90 -36 c0 -2 -14 -12 -31 -20
-30 -16 -30 -16 -19 4 9 18 50 31 50 16z m-179 -122 c34 -20 35 -25 13 -58
-23 -36 -37 -31 -30 9 5 25 3 35 -9 40 -14 5 -22 26 -9 26 3 0 19 -8 35 -17z
m-181 -503 c0 -5 -7 -10 -15 -10 -8 0 -15 5 -15 10 0 6 7 10 15 10 8 0 15 -4
15 -10z m-40 -150 c0 -5 -7 -10 -15 -10 -8 0 -15 5 -15 10 0 6 7 10 15 10 8 0
15 -4 15 -10z m-4 -121 c3 -6 8 -51 10 -99 2 -54 11 -112 23 -151 12 -34 21
-75 21 -91 0 -15 16 -58 35 -95 19 -37 35 -78 35 -91 0 -26 25 -65 70 -111 25
-25 30 -37 30 -80 0 -58 -6 -64 -21 -21 -14 39 -29 38 -29 -1 0 -20 -4 -29
-12 -27 -19 7 -21 34 -3 51 29 30 15 93 -24 102 -28 7 -65 71 -77 136 -4 19
-11 39 -16 46 -14 17 -48 152 -48 189 0 16 -4 34 -9 40 -11 11 -14 54 -12 147
1 62 10 82 27 56z m254 -1154 c0 -8 -4 -15 -10 -15 -5 0 -10 7 -10 15 0 8 5
15 10 15 6 0 10 -7 10 -15z"/>
<path d="M3507 4123 c-11 -10 -8 -43 3 -43 6 0 10 11 10 25 0 26 -2 29 -13 18z"/>
<path d="M2321 4079 c-6 -18 -11 -46 -11 -63 -1 -17 -7 -42 -15 -56 -8 -14
-14 -40 -15 -58 0 -19 -9 -45 -20 -59 -20 -25 -27 -63 -12 -63 10 0 46 61 52
90 5 26 27 26 23 0 -3 -18 18 -73 24 -66 8 7 15 258 8 283 -8 32 -21 29 -34
-8z"/>
<path d="M2795 4101 c-11 -20 18 -58 66 -85 27 -15 57 -39 66 -53 9 -13 45
-38 80 -55 35 -16 63 -35 63 -43 0 -20 251 -215 277 -215 3 0 33 -13 67 -29
108 -51 151 -62 316 -82 133 -16 358 1 368 29 6 18 -76 21 -88 3 -7 -11 -271
2 -290 14 -8 5 -42 13 -75 16 -66 7 -111 23 -165 57 -19 12 -56 25 -83 28 -31
4 -55 15 -70 30 -12 13 -26 24 -31 24 -6 0 -21 11 -35 24 -15 13 -73 61 -131
106 -57 44 -113 94 -123 110 -11 17 -22 30 -27 30 -4 0 -19 11 -34 25 -15 14
-35 25 -45 25 -10 0 -28 11 -41 25 -24 25 -54 33 -65 16z"/>
<path d="M4052 4099 c2 -6 8 -10 13 -10 5 0 11 4 13 10 2 6 -4 11 -13 11 -9 0
-15 -5 -13 -11z"/>
<path d="M6267 4087 c-7 -18 4 -273 13 -287 5 -8 16 -7 41 3 l34 15 -27 11
c-32 12 -34 19 -11 36 15 11 16 20 6 81 -19 115 -28 147 -39 151 -6 2 -14 -2
-17 -10z"/>
<path d="M3590 4076 c0 -19 27 -39 40 -31 8 5 6 13 -6 26 -20 22 -34 25 -34 5z"/>
<path d="M615 4054 c-9 -14 -38 -48 -66 -76 -27 -27 -49 -56 -49 -64 0 -8 -7
-14 -14 -14 -8 0 -31 -24 -51 -52 -64 -93 -138 -194 -202 -277 -35 -44 -63
-83 -63 -87 0 -3 -8 -16 -17 -29 -10 -12 -25 -33 -33 -46 -8 -12 -25 -33 -37
-45 -13 -11 -23 -24 -23 -28 0 -9 -43 -70 -52 -74 -5 -2 -8 -21 -8 -43 0 -36
2 -39 19 -29 11 5 21 22 23 37 2 18 14 35 35 48 18 11 42 38 53 60 27 52 54
92 112 168 27 34 66 85 87 113 22 28 46 68 55 88 8 20 19 36 24 36 9 0 62 76
62 89 0 4 12 18 26 32 14 13 45 53 69 89 24 36 53 73 64 82 22 19 26 33 12 42
-5 3 -16 -6 -26 -20z"/>
<path d="M1073 4034 c-9 -23 13 -40 32 -24 12 10 13 16 4 26 -15 18 -28 18
-36 -2z"/>
<path d="M1838 4014 c-16 -8 -30 -26 -34 -42 -3 -15 -8 -34 -10 -44 -8 -30 15
-29 31 1 8 17 24 35 35 41 12 6 20 21 20 35 0 29 -5 30 -42 9z"/>
<path d="M733 3963 c-22 -8 -14 -33 12 -43 14 -5 25 -14 25 -20 0 -6 12 -10
28 -8 33 4 37 32 4 36 -12 2 -27 12 -32 23 -11 19 -16 21 -37 12z"/>
<path d="M1070 3920 c0 -11 5 -20 10 -20 6 0 10 9 10 20 0 11 -4 20 -10 20 -5
0 -10 -9 -10 -20z"/>
<path d="M655 3911 c-7 -12 12 -24 25 -16 11 7 4 25 -10 25 -5 0 -11 -4 -15
-9z"/>
<path d="M4345 3911 c-7 -12 12 -24 25 -16 11 7 4 25 -10 25 -5 0 -11 -4 -15
-9z"/>
<path d="M698 3867 c-31 -26 -35 -37 -13 -37 18 0 75 40 75 52 0 16 -35 7 -62
-15z"/>
<path d="M382 3848 c6 -18 28 -21 28 -4 0 9 -7 16 -16 16 -9 0 -14 -5 -12 -12z"/>
<path d="M1732 3825 c-6 -14 -8 -25 -4 -25 12 0 32 23 32 37 0 22 -16 15 -28
-12z"/>
<path d="M603 3823 c-12 -4 -19 -43 -8 -43 3 0 17 7 31 17 19 12 22 18 12 24
-14 10 -17 10 -35 2z"/>
<path d="M2340 3761 c0 -6 4 -12 9 -15 5 -4 9 -36 9 -74 0 -41 6 -81 16 -104
9 -21 16 -60 16 -88 0 -28 5 -61 11 -72 8 -14 8 -27 1 -42 -20 -40 -23 -200
-6 -273 11 -45 14 -90 10 -131 -5 -61 -4 -64 29 -100 30 -33 34 -35 41 -18 4
10 2 44 -3 75 -7 33 -7 63 -2 73 14 26 10 81 -7 106 -10 15 -16 45 -16 85 0
35 -6 74 -15 90 -7 15 -11 37 -8 48 7 20 7 20 27 2 11 -10 26 -31 33 -48 l13
-30 1 31 c1 16 -3 34 -8 40 -8 9 -21 49 -57 174 -9 30 -22 68 -30 83 -8 16
-14 51 -14 78 0 53 -22 119 -39 119 -6 0 -11 -4 -11 -9z"/>
<path d="M2190 3736 c0 -15 18 -31 26 -23 7 7 -7 37 -17 37 -5 0 -9 -6 -9 -14z"/>
<path d="M4555 3729 c-4 -6 -5 -13 -2 -16 7 -7 27 6 27 18 0 12 -17 12 -25 -2z"/>
<path d="M4720 3630 c0 -5 7 -10 15 -10 8 0 15 5 15 10 0 6 -7 10 -15 10 -8 0
-15 -4 -15 -10z"/>
<path d="M4167 3594 c-13 -13 -7 -24 14 -24 11 0 19 5 17 12 -5 14 -22 21 -31
12z"/>
<path d="M4458 3545 c-6 -11 -17 -24 -24 -28 -19 -11 -18 -36 2 -44 9 -3 27 5
44 22 25 24 35 27 75 23 51 -6 61 0 40 28 -20 28 -122 27 -137 -1z"/>
<path d="M497 3553 c-14 -13 -6 -33 12 -33 24 0 35 26 15 34 -19 7 -19 7 -27
-1z"/>
<path d="M1590 3499 c0 -11 5 -17 10 -14 6 3 10 13 10 21 0 8 -4 14 -10 14 -5
0 -10 -9 -10 -21z"/>
<path d="M4291 3497 c-41 -20 -38 -37 7 -37 44 0 69 19 50 38 -15 15 -27 15
-57 -1z"/>
<path d="M2141 3491 c-46 -6 -68 -33 -50 -62 7 -11 15 -7 39 19 19 19 41 32
56 32 13 0 24 5 24 10 0 6 -6 9 -12 8 -7 0 -33 -4 -57 -7z"/>
<path d="M450 3444 c0 -11 6 -14 23 -9 38 12 43 25 9 25 -22 0 -32 -5 -32 -16z"/>
<path d="M2246 3451 c-4 -6 -3 -19 3 -28 9 -17 10 -17 17 0 8 21 -10 45 -20
28z"/>
<path d="M6870 3453 c0 -16 38 -32 92 -38 29 -4 67 -12 83 -20 53 -22 132 -45
159 -45 21 0 26 5 26 24 0 25 -28 36 -94 36 -17 0 -56 9 -86 19 -64 21 -180
37 -180 24z"/>
<path d="M5820 3403 c0 -13 5 -23 10 -23 13 0 13 11 0 30 -8 12 -10 11 -10 -7z"/>
<path d="M2120 3395 c7 -8 16 -12 21 -9 13 8 1 24 -18 24 -13 0 -13 -3 -3 -15z"/>
<path d="M738 3379 c-24 -13 -23 -29 2 -29 13 0 20 7 20 20 0 23 1 23 -22 9z"/>
<path d="M2246 3373 c-11 -11 -6 -23 9 -23 8 0 15 4 15 9 0 13 -16 22 -24 14z"/>
<path d="M5754 3291 c-3 -15 -22 -46 -41 -67 l-35 -39 8 -250 c11 -373 12
-392 24 -495 6 -52 13 -131 16 -175 2 -44 9 -114 15 -155 6 -41 13 -113 14
-160 4 -108 3 -100 15 -100 5 0 21 22 34 48 20 39 23 55 16 90 -4 23 -12 47
-18 54 -6 7 -12 63 -13 123 -1 61 -8 129 -15 151 -60 201 -66 804 -9 874 7 8
15 41 18 73 4 46 3 57 -9 57 -8 0 -17 -13 -20 -29z"/>
<path d="M2000 3274 c0 -9 5 -14 12 -12 18 6 21 28 4 28 -9 0 -16 -7 -16 -16z"/>
<path d="M280 3244 c0 -17 22 -14 28 4 2 7 -3 12 -12 12 -9 0 -16 -7 -16 -16z"/>
<path d="M2518 3186 c2 -20 8 -39 13 -42 5 -3 9 -16 9 -29 0 -13 11 -41 25
-61 14 -21 28 -49 32 -63 6 -27 71 -130 105 -167 11 -12 27 -35 36 -52 26 -47
122 -171 165 -211 20 -20 37 -40 37 -43 0 -19 64 -104 90 -121 17 -10 30 -27
30 -37 0 -26 24 -42 53 -35 35 9 44 -12 17 -40 l-23 -24 28 -23 c81 -68 105
-91 110 -109 4 -10 26 -32 50 -49 24 -17 47 -39 50 -50 3 -11 30 -35 59 -55
29 -19 58 -45 65 -58 10 -20 67 -57 86 -57 14 0 2 48 -15 63 -11 9 -20 26 -20
37 0 14 -11 22 -40 30 -22 6 -40 15 -40 19 0 5 -18 26 -39 47 -22 21 -42 48
-46 61 -3 12 -15 27 -26 34 -11 6 -27 26 -35 44 -9 22 -22 35 -36 37 -17 2
-24 11 -26 31 -2 16 -15 36 -33 49 -16 12 -29 28 -29 35 0 7 -11 18 -24 24
-13 6 -29 21 -35 33 -6 11 -27 41 -46 65 -25 30 -34 49 -29 63 8 27 -23 59
-50 52 -16 -4 -28 3 -45 28 -14 18 -30 37 -38 41 -18 11 -17 37 2 37 8 0 15 5
15 10 0 6 -4 10 -10 10 -5 0 -19 8 -29 18 -10 9 -34 28 -52 41 -57 41 -170
181 -194 241 -4 8 -11 22 -16 30 -5 8 -22 42 -38 75 -16 33 -38 70 -48 83
l-19 23 4 -35z"/>
<path d="M4603 3097 c-95 -95 -183 -171 -214 -184 -27 -11 -48 -28 -109 -84
-9 -9 -32 -25 -51 -35 -19 -11 -38 -25 -42 -31 -4 -7 -13 -13 -19 -13 -5 0
-27 -13 -48 -30 -21 -16 -44 -30 -52 -30 -7 0 -22 -6 -33 -14 -40 -27 -138
-76 -154 -76 -10 0 -23 -6 -29 -12 -7 -7 -36 -17 -65 -23 -51 -10 -52 -11 -52
-45 0 -31 3 -35 25 -32 14 1 32 11 40 21 8 10 38 26 66 35 28 9 60 23 70 31
10 8 26 15 35 15 9 0 22 6 28 13 6 8 29 19 52 26 26 8 43 20 46 32 3 11 14 19
27 19 12 0 34 15 50 35 16 19 38 35 47 35 10 0 23 9 29 21 7 11 26 27 43 34
18 7 53 32 79 54 25 23 54 41 65 41 21 0 112 84 168 155 22 28 46 54 53 58 13
9 17 37 5 36 -5 0 -31 -24 -60 -52z"/>
<path d="M1866 3054 c-4 -11 -1 -14 11 -12 9 2 18 9 21 16 6 18 -25 15 -32 -4z"/>
<path d="M5820 3025 c0 -28 15 -34 24 -9 10 25 7 34 -9 34 -9 0 -15 -9 -15
-25z"/>
<path d="M4752 2990 c-6 -11 -12 -27 -12 -35 0 -13 3 -13 20 -3 11 7 20 23 20
35 0 28 -11 29 -28 3z"/>
<path d="M27 2926 c-4 -10 -5 -21 -2 -24 9 -9 17 6 13 25 -3 17 -4 17 -11 -1z"/>
<path d="M2005 2887 c-4 -10 -5 -21 -1 -24 10 -10 18 4 13 24 -4 17 -4 17 -12
0z"/>
<path d="M4435 2830 c-24 -24 -35 -44 -32 -54 9 -24 50 -4 58 28 4 15 13 33
19 41 6 7 7 16 2 19 -5 3 -26 -12 -47 -34z"/>
<path d="M2075 2806 c-9 -13 -25 -26 -35 -29 -20 -5 -28 -27 -11 -27 21 0 80
46 81 63 0 24 -17 21 -35 -7z"/>
<path d="M2460 2799 c0 -12 29 -38 43 -39 14 0 7 38 -9 44 -23 9 -34 7 -34 -5z"/>
<path d="M1583 2724 c3 -20 0 -28 -14 -31 -26 -7 -24 -23 4 -23 14 0 26 10 35
27 17 39 15 53 -9 53 -18 0 -20 -5 -16 -26z"/>
<path d="M5012 2742 c-15 -10 -5 -42 13 -42 17 0 38 27 30 40 -7 12 -25 13
-43 2z"/>
<path d="M4345 2725 c-37 -16 -69 -50 -61 -64 9 -15 36 -3 74 32 48 46 43 57
-13 32z"/>
<path d="M2937 2683 c-13 -12 -7 -21 23 -33 36 -15 40 -12 29 18 -8 21 -38 30
-52 15z"/>
<path d="M1650 2640 c0 -9 12 -13 73 -25 11 -2 17 3 17 16 0 16 -7 19 -45 19
-25 0 -45 -4 -45 -10z"/>
<path d="M3116 2621 c-10 -15 47 -45 84 -44 19 1 55 -8 78 -19 24 -11 60 -21
80 -20 41 0 92 17 92 30 0 11 -99 25 -180 27 -35 0 -65 7 -80 18 -26 18 -65
23 -74 8z"/>
<path d="M1612 2574 c4 -21 22 -23 26 -1 2 10 -3 17 -13 17 -10 0 -15 -6 -13
-16z"/>
<path d="M3595 2537 c-60 -24 -77 -37 -65 -52 7 -9 24 -11 50 -8 26 4 52 0 74
-11 19 -9 41 -13 50 -10 28 11 17 24 -19 24 -37 0 -46 13 -18 28 22 13 9 42
-19 41 -13 0 -36 -6 -53 -12z"/>
<path d="M4980 2535 c0 -8 7 -15 15 -15 9 0 12 6 9 15 -4 8 -10 15 -15 15 -5
0 -9 -7 -9 -15z"/>
<path d="M2728 2492 c-6 -23 1 -52 13 -52 12 0 12 57 0 64 -5 3 -11 -2 -13
-12z"/>
<path d="M3455 2494 c-42 -22 -107 -37 -148 -35 -35 2 -38 0 -35 -21 3 -21 8
-23 48 -20 69 4 153 31 172 57 22 30 3 40 -37 19z"/>
<path d="M4672 2464 c4 -21 22 -23 26 -1 2 10 -3 17 -13 17 -10 0 -15 -6 -13
-16z"/>
<path d="M4172 2463 c-6 -2 -10 -9 -6 -14 8 -14 40 -11 54 6 10 13 9 15 -11
14 -13 0 -30 -3 -37 -6z"/>
<path d="M1320 2431 c0 -20 5 -31 14 -31 9 0 12 8 8 25 -7 37 -22 41 -22 6z"/>
<path d="M3535 2450 c-8 -13 3 -30 20 -30 23 0 27 18 6 30 -13 7 -22 7 -26 0z"/>
<path d="M4051 2451 c-33 -9 -37 -27 -11 -41 30 -16 50 -6 50 25 0 26 -1 27
-39 16z"/>
<path d="M1212 2438 c6 -18 28 -21 28 -4 0 9 -7 16 -16 16 -9 0 -14 -5 -12
-12z"/>
<path d="M6860 2441 c0 -5 6 -11 13 -14 18 -6 48 4 41 14 -7 12 -54 12 -54 0z"/>
<path d="M4742 2423 c2 -10 11 -19 21 -21 16 -3 17 -1 7 17 -13 25 -33 28 -28
4z"/>
<path d="M6930 2401 c0 -12 5 -21 10 -21 6 0 10 6 10 14 0 8 -4 18 -10 21 -5
3 -10 -3 -10 -14z"/>
<path d="M4824 2385 c-6 -24 0 -44 10 -34 11 11 17 59 7 59 -6 0 -13 -11 -17
-25z"/>
<path d="M2777 2386 c-7 -17 2 -56 13 -56 15 0 29 47 17 59 -15 15 -24 14 -30
-3z"/>
<path d="M4636 2385 c-11 -30 -6 -64 12 -77 10 -7 21 -21 25 -30 3 -10 11 -18
17 -18 15 0 12 28 -4 37 -8 5 -16 27 -18 52 -3 45 -21 65 -32 36z"/>
<path d="M2092 2379 c2 -6 8 -10 13 -10 5 0 11 4 13 10 2 6 -4 11 -13 11 -9 0
-15 -5 -13 -11z"/>
<path d="M3877 2333 c-13 -12 -7 -23 13 -23 11 0 20 7 20 15 0 15 -21 21 -33
8z"/>
<path d="M4762 2321 c4 -13 18 -16 19 -4 0 4 -5 9 -11 12 -7 2 -11 -2 -8 -8z"/>
<path d="M6730 2320 c-12 -8 -9 -10 13 -10 15 0 27 5 27 10 0 13 -20 13 -40 0z"/>
<path d="M4153 2278 c2 -7 10 -13 17 -13 7 0 15 6 18 13 2 7 -5 12 -18 12 -13
0 -20 -5 -17 -12z"/>
<path d="M1637 2264 c-3 -4 -1 -16 5 -27 9 -18 11 -19 20 -4 13 25 -6 49 -25
31z"/>
<path d="M3915 2261 c-7 -12 12 -24 25 -16 11 7 4 25 -10 25 -5 0 -11 -4 -15
-9z"/>
<path d="M1033 2164 c-3 -8 1 -23 10 -32 15 -14 17 -14 23 1 8 21 -1 47 -16
47 -6 0 -13 -7 -17 -16z"/>
<path d="M2420 1956 c0 -10 9 -16 21 -16 24 0 21 23 -4 28 -10 2 -17 -3 -17
-12z"/>
<path d="M2310 1920 c0 -5 9 -10 20 -10 11 0 20 5 20 10 0 6 -9 10 -20 10 -11
0 -20 -4 -20 -10z"/>
<path d="M3097 1883 c-10 -9 -9 -23 2 -23 5 0 11 7 15 15 5 15 -5 20 -17 8z"/>
<path d="M3587 1867 c-9 -7 -19 -24 -23 -39 -6 -27 -5 -28 34 -28 31 0 41 -4
45 -20 4 -15 14 -20 36 -20 17 0 31 2 31 5 0 2 -18 14 -40 25 -30 15 -42 29
-47 51 -7 36 -15 42 -36 26z"/>
<path d="M1656 1812 c-3 -6 -1 -14 5 -17 15 -10 25 3 12 16 -7 7 -13 7 -17 1z"/>
<path d="M1961 1792 c-6 -11 -11 -31 -10 -44 0 -15 3 -18 6 -8 3 8 13 23 21
33 11 12 12 21 5 28 -8 8 -14 5 -22 -9z"/>
<path d="M5793 1755 c-15 -31 -15 -43 -3 -112 7 -43 16 -107 19 -143 5 -56 9
-65 26 -65 15 0 19 5 16 20 -2 11 -6 61 -10 110 -4 50 -13 100 -21 112 -13 20
-13 27 4 57 17 33 16 56 -5 56 -5 0 -17 -16 -26 -35z"/>
<path d="M2045 1660 c-3 -6 1 -13 10 -16 19 -8 30 0 20 15 -8 14 -22 14 -30 1z"/>
<path d="M752 1648 c-15 -15 -16 -55 -1 -64 20 -12 32 12 17 35 -11 18 -11 23
2 31 8 5 10 10 5 10 -6 0 -16 -5 -23 -12z"/>
<path d="M2050 1610 c-21 -13 -7 -22 27 -18 27 3 27 4 7 15 -12 7 -26 8 -34 3z"/>
<path d="M626 1562 c-7 -12 17 -22 51 -22 36 0 24 24 -14 28 -17 2 -34 -1 -37
-6z"/>
<path d="M811 1538 c1 -18 3 -25 6 -15 2 9 8 17 12 17 4 0 16 7 27 15 18 14
17 14 -13 15 -31 0 -33 -2 -32 -32z"/>
<path d="M522 1511 c-11 -7 -11 -9 1 -14 16 -6 27 0 27 15 0 10 -11 10 -28 -1z"/>
<path d="M481 1441 c-1 -24 2 -32 9 -25 7 7 7 19 1 35 -9 23 -10 22 -10 -10z"/>
<path d="M775 1429 c-10 -15 3 -25 16 -12 7 7 7 13 1 17 -6 3 -14 1 -17 -5z"/>
<path d="M1556 1275 c-9 -24 -8 -45 3 -45 14 0 22 30 13 47 -8 13 -10 13 -16
-2z"/>
<path d="M5820 1262 c0 -11 7 -23 16 -26 11 -4 15 0 12 16 -4 28 -28 36 -28
10z"/>
<path d="M530 1251 c0 -11 4 -22 8 -25 14 -9 35 12 29 28 -9 23 -37 20 -37 -3z"/>
<path d="M45 1209 c-10 -15 1 -22 24 -14 12 3 19 11 16 16 -8 12 -32 11 -40
-2z"/>
<path d="M475 1201 c-10 -17 12 -21 25 -6 10 12 10 15 -3 15 -9 0 -18 -4 -22
-9z"/>
<path d="M795 1181 c-3 -5 -1 -12 5 -16 13 -8 50 3 50 16 0 12 -47 12 -55 0z"/>
<path d="M5837 1184 c-11 -11 3 -24 24 -24 12 0 19 5 17 13 -5 14 -31 21 -41
11z"/>
<path d="M1040 1170 c0 -5 -13 -10 -29 -10 -44 0 -46 -16 -6 -35 37 -18 50
-51 43 -110 -3 -25 1 -31 22 -33 14 -2 30 -8 36 -13 7 -6 17 -2 28 10 16 18
16 21 1 51 -13 25 -19 29 -30 20 -8 -7 -23 -9 -32 -5 -16 6 -15 8 6 24 19 15
21 20 10 27 -30 19 -41 42 -29 63 9 17 8 21 -5 21 -8 0 -15 -4 -15 -10z"/>
<path d="M602 1156 c-20 -11 -21 -14 -9 -24 20 -17 69 1 61 23 -7 18 -21 19
-52 1z"/>
<path d="M467 1123 c-13 -12 -7 -23 13 -23 11 0 20 7 20 15 0 15 -21 21 -33 8z"/>
<path d="M313 1103 c-4 -11 5 -25 30 -45 33 -26 35 -31 26 -61 -5 -17 -9 -33
-9 -34 0 -2 11 -3 25 -3 15 0 25 -6 25 -14 0 -21 21 -31 31 -15 13 20 11 23
-13 34 -13 6 -26 24 -31 45 -5 19 -17 44 -26 55 -10 11 -21 28 -24 38 -8 22
-26 22 -34 0z"/>
<path d="M6194 1035 c-8 -20 3 -48 16 -40 13 8 13 55 0 55 -6 0 -13 -7 -16
-15z"/>
<path d="M773 1025 c-3 -9 -3 -18 0 -21 9 -9 27 6 27 22 0 19 -19 18 -27 -1z"/>
<path d="M1167 887 c-10 -21 -20 -52 -24 -69 -6 -28 -4 -30 18 -23 32 10 30 5
27 71 l-3 59 -18 -38z"/>
<path d="M82 881 c-18 -11 -11 -45 10 -49 20 -4 61 34 53 48 -8 12 -45 13 -63
1z"/>
<path d="M650 865 c0 -16 6 -25 15 -25 9 0 15 9 15 25 0 16 -6 25 -15 25 -9 0
-15 -9 -15 -25z"/>
<path d="M1920 875 c0 -8 5 -15 10 -15 6 0 10 7 10 15 0 8 -4 15 -10 15 -5 0
-10 -7 -10 -15z"/>
<path d="M4404 869 c-3 -6 -2 -15 4 -21 6 -6 11 -2 15 11 5 22 -7 29 -19 10z"/>
<path d="M354 847 c-3 -10 -3 -34 2 -55 l7 -37 10 43 c7 30 7 46 -1 54 -8 8
-13 7 -18 -5z"/>
<path d="M3352 824 c9 -9 21 -13 27 -9 16 10 3 25 -22 25 -20 0 -20 -1 -5 -16z"/>
<path d="M1880 805 c-10 -11 -10 -19 -2 -27 15 -15 44 -2 40 19 -4 23 -22 27
-38 8z"/>
<path d="M1980 750 c0 -22 7 -25 29 -11 16 10 6 31 -15 31 -8 0 -14 -9 -14
-20z"/>
<path d="M1176 737 c-31 -22 -16 -52 27 -55 33 -3 37 -1 37 20 0 43 -31 59
-64 35z"/>
<path d="M783 673 c-16 -6 -17 -33 -2 -33 19 0 50 21 44 31 -7 10 -22 11 -42
2z"/>
<path d="M1218 625 c-13 -29 1 -51 37 -57 26 -4 33 42 10 66 -23 22 -34 20
-47 -9z"/>
<path d="M1050 630 c0 -13 28 -25 38 -16 3 4 0 11 -8 16 -20 13 -30 12 -30 0z"/>
<path d="M375 549 c-10 -15 1 -23 20 -15 9 3 13 10 10 16 -8 13 -22 13 -30 -1z"/>
<path d="M1268 539 c-26 -15 -22 -38 8 -51 29 -14 46 2 42 37 -3 23 -25 29
-50 14z"/>
<path d="M906 521 c-7 -11 22 -23 35 -15 5 3 9 9 9 15 0 12 -37 12 -44 0z"/>
<path d="M191 507 c-12 -15 -5 -27 16 -27 7 0 13 9 13 20 0 23 -13 26 -29 7z"/>
<path d="M1183 503 c-14 -5 -18 -53 -5 -53 20 0 45 28 39 44 -7 16 -13 18 -34
9z"/>
<path d="M1316 454 c-3 -8 -3 -42 1 -74 5 -56 7 -60 32 -60 14 0 33 5 41 10
13 9 11 14 -12 33 -33 27 -35 43 -7 50 28 8 20 26 -18 42 -27 11 -32 11 -37
-1z"/>
<path d="M1454 386 c-19 -15 -19 -15 1 -35 14 -14 28 -18 48 -14 36 7 46 31
22 49 -24 18 -46 18 -71 0z"/>
<path d="M892 368 c3 -7 13 -15 22 -16 12 -3 17 1 14 10 -3 7 -13 15 -22 16
-12 3 -17 -1 -14 -10z"/>
<path d="M750 332 c0 -14 11 -21 26 -15 8 3 11 9 8 14 -7 11 -34 12 -34 1z"/>
<path d="M930 310 c0 -5 7 -10 15 -10 8 0 15 5 15 10 0 6 -7 10 -15 10 -8 0
-15 -4 -15 -10z"/>
<path d="M1519 316 c-9 -9 3 -87 13 -84 5 2 9 7 9 11 -1 4 -1 23 -1 42 0 31
-8 43 -21 31z"/>
<path d="M746 274 c-8 -22 -7 -34 3 -34 12 0 21 39 11 45 -4 3 -11 -2 -14 -11z"/>
<path d="M840 275 c0 -8 5 -15 10 -15 6 0 10 7 10 15 0 8 -4 15 -10 15 -5 0
-10 -7 -10 -15z"/>
<path d="M3170 276 c0 -17 27 -29 35 -16 4 6 3 15 0 20 -9 15 -35 12 -35 -4z"/>
<path d="M1584 243 c-5 -17 -1 -37 9 -56 10 -16 17 -35 17 -43 0 -17 16 -19
26 -2 4 6 0 16 -9 23 -12 8 -17 27 -17 59 0 50 -16 62 -26 19z"/>
<path d="M4140 210 c0 -19 3 -21 12 -12 9 9 9 15 0 24 -9 9 -12 7 -12 -12z"/>
<path d="M310 204 c0 -9 7 -14 17 -12 25 5 28 28 4 28 -12 0 -21 -6 -21 -16z"/>
<path d="M3930 181 c0 -12 6 -21 16 -21 9 0 14 7 12 17 -5 25 -28 28 -28 4z"/>
<path d="M2520 165 c0 -8 5 -15 10 -15 6 0 10 7 10 15 0 8 -4 15 -10 15 -5 0
-10 -7 -10 -15z"/>
<path d="M1017 144 c-13 -13 -7 -24 14 -24 11 0 19 5 17 12 -5 14 -22 21 -31
12z"/>
<path d="M855 129 c-9 -14 -6 -16 35 -23 19 -3 29 -3 23 0 -7 3 -13 12 -13 20
0 16 -36 19 -45 3z"/>
<path d="M1676 101 c-9 -14 5 -18 44 -10 21 4 26 7 13 8 -12 0 -28 4 -36 7 -8
3 -18 1 -21 -5z"/>
</g>
</svg>
